<svg width="300" height="300" fill="none" xmlns="http://www.w3.org/2000/svg">
    <g id="skype">
        <path fill-rule="evenodd" clip-rule="evenodd"
              d="M16 32C24.8366 32 32 24.8366 32 16C32 7.16344 24.8366 0 16 0C7.16344 0 0 7.16344 0 16C0 24.8366 7.16344 32 16 32ZM25.9766 16.3218C25.9766 17.0242 25.8925 17.7267 25.7499 18.3866C26.4592 19.2806 26.8833 20.3911 26.8796 21.6009C26.8796 24.5136 24.4411 26.88 21.4396 26.88C20.1966 26.88 19.0486 26.4685 18.1274 25.7802C17.4437 25.9186 16.7235 26.0002 15.9996 26.0002C10.4902 26.0002 6.02629 21.6719 6.02629 16.3218C6.02629 15.6193 6.11038 14.9169 6.25296 14.257C5.54371 13.3665 5.11963 12.2525 5.11963 11.0427C5.11963 8.12993 7.55812 5.76356 10.556 5.76001C11.8063 5.76001 12.9542 6.17155 13.8755 6.86337C14.5592 6.72501 15.2794 6.64341 16.0033 6.64341C21.5127 6.64341 25.9766 10.9717 25.9766 16.3218ZM10.4426 19.6354C10.4426 21.3242 13.1078 22.7007 16.2957 22.7007C18.9646 22.7007 21.7394 21.4093 21.7357 18.6208C21.7357 16.226 19.3411 15.4029 17.3304 14.963C17.0571 14.9018 16.8019 14.8465 16.5643 14.795C14.762 14.4042 13.9742 14.2335 13.9742 13.409C13.9742 12.6782 14.7676 12.3483 16.0142 12.3483C17.261 12.3483 17.8234 12.8433 18.3183 13.279C18.7071 13.6214 19.0543 13.927 19.6592 13.927C20.5805 13.927 21.1325 13.2246 21.1325 12.4263C21.1325 10.8475 18.4271 9.81514 15.751 9.81514C13.2979 9.81514 10.4499 10.8475 10.4499 13.6397C10.4499 16.4356 12.6701 16.9451 15.3531 17.5609C15.6218 17.6226 15.8952 17.6853 16.1714 17.7515C16.2345 17.7666 16.2964 17.7813 16.357 17.7957C17.5087 18.0688 18.2114 18.2355 18.2114 19.0713C18.2114 19.7738 17.4035 20.3095 16.1568 20.3095C14.6656 20.3095 13.9767 19.6259 13.3816 19.0355C12.9292 18.5866 12.531 18.1915 11.8758 18.1915C10.8813 18.1915 10.4426 18.8797 10.4426 19.6354Z"
              fill="currentColor"/>
    </g>
    <g id="chat">
        <path fill-rule="evenodd" clip-rule="evenodd"
              d="M32 16C32 24.8366 24.8366 32 16 32C7.16344 32 0 24.8366 0 16C0 7.16344 7.16344 0 16 0C24.8366 0 32 7.16344 32 16ZM14.6752 11.7131C14.1209 9.68769 12.2258 8.19163 9.97962 8.19163C7.30009 8.19163 5.12012 10.3206 5.12012 12.9375C5.12012 15.5544 7.30009 17.6833 9.97962 17.6833H10.6394C8.78845 18.3542 7.46584 20.096 7.46584 22.1343C7.46584 24.7512 9.64575 26.8801 12.3253 26.8801C15.0049 26.8801 17.1848 24.7512 17.1848 22.1343V21.3868C17.1848 21.2289 17.2094 21.0751 17.2538 20.9284C17.8086 22.953 19.7025 24.4486 21.9481 24.4486C24.6277 24.4486 26.8076 22.3196 26.8076 19.7027C26.8076 17.0858 24.6275 14.9569 21.9481 14.9569H21.2901C23.1405 14.2858 24.4624 12.5438 24.4624 10.506C24.4624 7.88918 22.2824 5.76025 19.6029 5.76025C16.9234 5.76025 14.7434 7.88918 14.7434 10.506V11.2535C14.7434 11.4117 14.7197 11.5662 14.6752 11.7131ZM14.8391 15.2519V17.3885H17.0886V15.2519H14.8391ZM16.5405 13.0482H19.6029C21.0382 13.0482 22.2059 11.9078 22.2059 10.5061C22.2059 9.10439 21.0382 7.96399 19.6029 7.96399C18.1676 7.96399 16.9999 9.10439 16.9999 10.5061V11.2536C16.9999 11.8928 16.8357 12.5064 16.5405 13.0482ZM9.97956 10.3954C8.54428 10.3954 7.37657 11.5358 7.37657 12.9375C7.37657 14.3392 8.54428 15.4796 9.9795 15.4796H10.7449C11.3995 15.4796 12.0278 15.64 12.5825 15.9282V12.9375C12.5825 11.5358 11.4148 10.3954 9.97956 10.3954ZM14.9283 22.1343V21.3868C14.9283 20.7476 15.0925 20.1339 15.3877 19.5922H12.3253C10.89 19.5922 9.7223 20.7326 9.7223 22.1343C9.7223 23.536 10.89 24.6764 12.3253 24.6764C13.7606 24.6764 14.9283 23.536 14.9283 22.1343ZM19.3451 19.7028C19.3451 21.1045 20.5128 22.2449 21.9481 22.2449C23.3834 22.2449 24.5511 21.1045 24.5511 19.7027C24.5511 18.301 23.3834 17.1606 21.9481 17.1606H21.1828C20.5282 17.1606 19.8998 17.0003 19.3451 16.712V19.7028Z"
              fill="currentColor"/>
    </g>
    <g id="slack">
        <path fill-rule="evenodd" clip-rule="evenodd"
              d="M16 32C24.8366 32 32 24.8366 32 16C32 7.16344 24.8366 0 16 0C7.16344 0 0 7.16344 0 16C0 24.8366 7.16344 32 16 32ZM24.2784 15.878C25.2936 15.5573 26.3835 16.0972 26.7129 17.0859C27.0422 18.0746 26.4865 19.1359 25.4726 19.4566C25.4726 19.4566 24.7094 19.6982 23.5261 20.0731C23.8221 20.9587 24.0402 21.6124 24.1318 21.8868C24.1623 21.9781 24.1787 22.0274 24.1794 22.0294C24.5075 23.0102 23.8812 24.0702 22.8565 24.3579C21.8724 24.6325 20.849 24.1137 20.506 23.191L19.8527 21.2347C19.6125 21.3108 19.3694 21.3878 19.1246 21.4653C18.0179 21.8157 16.8739 22.178 15.7862 22.5218C16.1793 23.7019 16.4354 24.4701 16.4382 24.478C16.7662 25.4588 16.1399 26.5188 15.1152 26.8066C14.1311 27.0811 13.1077 26.5624 12.7647 25.6397L12.1114 23.6834C11.1433 23.9903 10.4443 24.2112 10.1981 24.289C10.1361 24.3086 10.1028 24.3191 10.1012 24.3196C9.09405 24.6391 8.00559 24.0292 7.71009 23.0313C7.42814 22.073 7.96085 21.0763 8.90835 20.7424L10.9172 20.1061L9.59559 16.146C8.59907 16.4622 7.88735 16.6872 7.66235 16.7584C7.61404 16.7736 7.58817 16.7818 7.58674 16.7823C6.5796 17.1004 5.49113 16.4919 5.19563 15.4939C4.91233 14.5356 5.44504 13.539 6.3939 13.205L8.40275 12.5687L7.76973 10.6718C7.43899 9.68446 7.99474 8.62316 9.01001 8.30239C10.0239 7.9803 11.1137 8.52151 11.4445 9.51022C11.4445 9.51022 11.6925 10.2534 12.0762 11.4058L16.1427 10.1188L15.5096 8.22319C15.1803 7.23448 15.7347 6.17318 16.7499 5.85241C17.7652 5.53164 18.855 6.07286 19.183 7.06024C19.183 7.06024 19.4311 7.80342 19.8161 8.9558L21.7626 8.33935C22.7778 8.01858 23.8677 8.55847 24.197 9.54718C24.5264 10.5359 23.972 11.5972 22.9568 11.918C22.9568 11.918 22.1936 12.1595 21.0103 12.5344C21.0892 12.7708 21.1691 13.01 21.2495 13.251C21.6086 14.3263 21.9797 15.4377 22.3319 16.4945L24.2784 15.878ZM13.8093 16.5995C14.0719 17.3869 14.3364 18.18 14.592 18.9445L18.6585 17.6574L17.3369 13.6974C17.0938 13.7743 16.8478 13.8522 16.5999 13.9307C15.496 14.2803 14.3552 14.6416 13.2704 14.9844C13.4467 15.5124 13.6275 16.0546 13.8093 16.5995Z"
              fill="currentColor"/>
    </g>
    <g id="email">
        <path fill-rule="evenodd" clip-rule="evenodd"
              d="M16 32C24.8366 32 32 24.8366 32 16C32 7.16344 24.8366 0 16 0C7.16344 0 0 7.16344 0 16C0 24.8366 7.16344 32 16 32ZM25.4053 13.9812C25.4053 13.8178 25.1955 13.7203 25.0566 13.8235C24.2545 14.4056 23.1902 15.1454 19.5344 17.6142C19.4239 17.689 19.3002 17.7779 19.1654 17.8747C18.4117 18.416 17.3102 19.2072 16.2242 19.1999C15.1426 19.2072 14.0587 18.4292 13.2935 17.88C13.1573 17.7822 13.0312 17.6917 12.917 17.6142C9.25818 15.1425 8.19076 14.4056 7.38865 13.8264C7.24365 13.7232 7.04004 13.8178 7.04004 13.9841V20.7999C7.04004 21.683 7.8113 22.3999 8.76149 22.3999H23.6838C24.634 22.3999 25.4053 21.683 25.4053 20.7999V13.9812ZM18.4999 17.0034C17.8555 17.4669 16.9128 18.1451 16.2211 18.1332C15.5317 18.1427 14.5867 17.4635 13.9417 16.9999C13.8103 16.9055 13.6914 16.82 13.5896 16.7511C9.19756 13.7907 8.55057 13.3201 7.61413 12.6389C7.53563 12.5818 7.45509 12.5232 7.37014 12.4615C7.16344 12.3067 7.04004 12.0773 7.04004 11.8307V11.197C7.04004 10.3138 7.8113 9.59699 8.76149 9.59986H23.6807C24.6309 9.59986 25.4022 10.3167 25.4022 11.1999V11.8336C25.4022 12.0801 25.2788 12.3153 25.0721 12.4644C25.0124 12.5079 24.9548 12.5498 24.8986 12.5908C23.9215 13.3033 23.354 13.7171 18.8526 16.754C18.7506 16.823 18.6315 16.9087 18.4999 17.0034Z"
              fill="currentColor"/>
    </g>
    <g id="facebook">
        <path
                d="M16 0C7.17764 0 0 7.17764 0 16C0 24.8217 7.17764 32 16 32C24.8217 32 32 24.8217 32 16C32 7.17764 24.823 0 16 0ZM19.9791 16.5633H17.376C17.376 20.7221 17.376 25.8413 17.376 25.8413H13.5187C13.5187 25.8413 13.5187 20.7718 13.5187 16.5633H11.6852V13.2841H13.5187V11.1631C13.5187 9.64408 14.2406 7.27044 17.4114 7.27044L20.2697 7.2814V10.4645C20.2697 10.4645 18.5328 10.4645 18.1951 10.4645C17.8574 10.4645 17.3773 10.6334 17.3773 11.3578V13.2848H20.3161L19.9791 16.5633Z"
                fill="currentColor"/>
    </g>
    <g id="instagram">
        <path fill-rule="evenodd" clip-rule="evenodd"
              d="M16 32C24.8366 32 32 24.8366 32 16C32 7.16344 24.8366 0 16 0C7.16344 0 0 7.16344 0 16C0 24.8366 7.16344 32 16 32ZM26.1125 9.01737C26.3751 9.69264 26.5584 10.4719 26.6084 11.6055C26.6584 12.7432 26.6626 13.1057 26.6626 16.0022C26.6626 18.8986 26.6501 19.2611 26.6001 20.3989C26.5501 21.5324 26.3666 22.3076 26.1042 22.9869C25.5499 24.4205 24.4164 25.554 22.9827 26.1083C22.3076 26.3709 21.5283 26.5542 20.3947 26.6042C19.257 26.6543 18.8945 26.6667 15.998 26.6667C13.1016 26.6667 12.7389 26.6543 11.6013 26.6042C10.4677 26.5542 9.6926 26.3709 9.01326 26.1083C8.30479 25.8417 7.65883 25.4207 7.12536 24.8789C6.58358 24.3454 6.16276 23.7037 5.89188 22.9869C5.62929 22.3117 5.44582 21.5324 5.39585 20.3989C5.34587 19.2611 5.33333 18.8986 5.33333 16.0022C5.33333 13.1057 5.34587 12.7432 5.40008 11.6012C5.45006 10.4677 5.63336 9.69264 5.89595 9.0133C6.16276 8.30483 6.58358 7.65887 7.12536 7.1254C7.65883 6.57939 8.30056 6.16264 9.01749 5.89175C9.6926 5.62933 10.4719 5.44586 11.6054 5.39589C12.7432 5.34591 13.1057 5.33337 16.0021 5.33337C18.8985 5.33337 19.2611 5.34591 20.4031 5.40012C21.5366 5.4501 22.3118 5.6334 22.991 5.89599C23.6994 6.16264 24.3454 6.58362 24.8789 7.1254C25.4249 7.65887 25.8416 8.3006 26.1125 9.01737ZM24.3205 22.2951C24.4664 21.92 24.6414 21.3574 24.6873 20.3155C24.7372 19.1903 24.7498 18.8569 24.7498 16.0105C24.7498 13.164 24.7372 12.8266 24.6873 11.7013C24.6414 10.6635 24.4664 10.0969 24.3205 9.72178C24.1496 9.25912 23.8787 8.84237 23.5244 8.49644C23.1827 8.1422 22.7618 7.87131 22.2993 7.70054C21.9242 7.55468 21.3616 7.37968 20.3197 7.33377C19.1985 7.28379 18.8611 7.27126 16.0104 7.27126C13.1641 7.27126 12.8265 7.28379 11.7013 7.33377C10.6637 7.37968 10.0968 7.55468 9.72174 7.70054C9.25908 7.87131 8.84233 8.1422 8.49656 8.49644C8.13809 8.8383 7.8672 9.25912 7.69627 9.72178C7.55041 10.0969 7.3754 10.6595 7.32966 11.7013C7.27952 12.8223 7.26715 13.164 7.26715 16.0105C7.26715 18.8569 7.27952 19.1945 7.32966 20.3197C7.3754 21.3574 7.55041 21.9242 7.69627 22.2993C7.8672 22.7618 8.13809 23.1785 8.49232 23.5245C8.83403 23.8787 9.25501 24.1496 9.7175 24.3205C10.0926 24.4664 10.6552 24.6414 11.6971 24.6871C12.8182 24.7373 13.1599 24.7497 16.0063 24.7497C18.8528 24.7497 19.1902 24.7373 20.3155 24.6871C21.3533 24.6414 21.92 24.4664 22.295 24.3205C23.2244 23.9621 23.962 23.2245 24.3205 22.2951ZM16.0051 10.5229C12.9796 10.5229 10.5248 12.9775 10.5248 16.0032C10.5248 19.0289 12.9796 21.4835 16.0051 21.4835C19.0308 21.4835 21.4853 19.0289 21.4853 16.0032C21.4853 12.9775 19.0308 10.5229 16.0051 10.5229ZM16.0051 19.5581C14.0423 19.5581 12.4502 17.9662 12.4502 16.0032C12.4502 14.0402 14.0423 12.4483 16.0051 12.4483C17.9681 12.4483 19.56 14.0402 19.56 16.0032C19.56 17.9662 17.9681 19.5581 16.0051 19.5581ZM21.7003 11.5848C22.4071 11.5848 22.9801 11.0118 22.9801 10.3051C22.9801 9.59833 22.4071 9.02551 21.7003 9.02551C20.9936 9.02551 20.4207 9.59833 20.4207 10.3051C20.4207 11.0118 20.9936 11.5848 21.7003 11.5848Z"
              fill="currentColor"/>
    </g>
    <g id="linkedin">
        <path
                d="M16 0C7.16479 0 0 7.16479 0 16C0 24.8352 7.16479 32 16 32C24.8352 32 32 24.8352 32 16C32 7.16479 24.8352 0 16 0ZM11.3506 24.1875H7.45386V12.4641H11.3506V24.1875ZM9.40234 10.8633H9.37695C8.06934 10.8633 7.22363 9.96313 7.22363 8.83813C7.22363 7.68774 8.09521 6.8125 9.42822 6.8125C10.7612 6.8125 11.5815 7.68774 11.6069 8.83813C11.6069 9.96313 10.7612 10.8633 9.40234 10.8633ZM25.4014 24.1875H21.5051V17.9158C21.5051 16.3396 20.9409 15.2646 19.531 15.2646C18.4546 15.2646 17.8135 15.9897 17.5317 16.6897C17.4287 16.9402 17.4036 17.2903 17.4036 17.6406V24.1875H13.5071C13.5071 24.1875 13.5581 13.564 13.5071 12.4641H17.4036V14.124C17.9214 13.3252 18.8479 12.189 20.9153 12.189C23.479 12.189 25.4014 13.8645 25.4014 17.4653V24.1875Z"
                fill="currentColor"/>
    </g>
    <g id="laptop">
        <path d="M59.0247 63.7721H51.4967C51.225 63.7721 51.0031 63.5584 51.0031 63.2963V61.53C51.0031 61.2683 50.781 61.0542 50.5095 61.0542H39.9758C39.704 61.0542 39.482 61.2683 39.482 61.53V63.2963C39.482 63.5584 39.2599 63.7721 38.9881 63.7721H33.3288C33.057 63.7721 32.835 63.9862 32.835 64.2479V66.2912C32.835 66.5529 33.057 66.767 33.3288 66.767H59.0244C59.2959 66.767 59.518 66.5529 59.518 66.2912V64.2479C59.5184 63.9867 59.2963 63.7721 59.0247 63.7721Z"
              fill="#BD8D50"/>
        <path d="M71.6728 16H17.9549C16.0859 16 14.5655 17.4657 14.5655 19.2676C14.5655 19.2676 14.5655 25.4981 14.5655 27.7902C14.5655 28.917 14.4787 29.0763 15.2629 29.0763C15.6794 29.0763 16.1406 29.0763 16.6076 29.0763C17.2656 29.0763 17.1307 28.917 17.1307 27.7692C17.1307 25.4823 17.1307 19.2676 17.1307 19.2676C17.1307 18.837 17.5083 18.473 17.9549 18.473H71.6728C72.1192 18.473 72.4968 18.837 72.4968 19.2676V51.1679H34.1993C34.1993 51.1679 32.8496 51.1655 32.8496 52.8479C32.8496 53.8453 32.8496 55.8403 32.8496 56.8381C32.8496 58.5181 34.243 58.5181 34.243 58.5181H71.6728C73.5416 58.5181 75.0626 57.0525 75.0626 55.251V19.2676C75.0626 17.4659 73.5419 16 71.6728 16ZM44.814 55.6969C43.9701 55.6969 43.2863 55.0377 43.2863 54.2248C43.2863 53.4118 43.9701 52.7523 44.814 52.7523C45.6571 52.7523 46.3411 53.4118 46.3411 54.2248C46.3411 55.0377 45.6571 55.6969 44.814 55.6969Z"
              fill="#BD8D50"/>
        <path d="M27.6204 31.9949H8.18756C6.981 31.9949 6 32.9406 6 34.1036V64.8911C6 66.054 6.981 67.0001 8.18756 67.0001H27.6204C28.8263 67.0001 29.808 66.054 29.808 64.8911V34.1036C29.808 32.9406 28.8263 31.9949 27.6204 31.9949ZM15.5069 34.1456H20.3009C20.5296 34.1456 20.7155 34.3243 20.7155 34.5454C20.7155 34.766 20.5298 34.9448 20.3009 34.9448H15.5069C15.2778 34.9448 15.0925 34.766 15.0925 34.5454C15.0925 34.3243 15.2778 34.1456 15.5069 34.1456ZM17.8749 65.5189C17.2496 65.5189 16.7427 65.0303 16.7427 64.4276C16.7427 63.8248 17.2496 63.3362 17.8749 63.3362C18.5002 63.3362 19.0071 63.8248 19.0071 64.4276C19.0071 65.0303 18.5002 65.5189 17.8749 65.5189ZM27.9284 62.3114C27.9284 62.5928 27.6946 62.823 27.4093 62.823H8.39919C8.11371 62.823 7.88013 62.5928 7.88013 62.3114V36.7282C7.88013 36.4468 8.11388 36.2168 8.39919 36.2168H27.4093C27.6948 36.2168 27.9284 36.447 27.9284 36.7282V62.3114Z"
              fill="#BD8D50"/>
    </g>
    <g id="pencil">
        <path fill-rule="evenodd" clip-rule="evenodd"
              d="M51.2497 21.204H31.5895C31.2909 21.1811 31.0383 21.0668 30.8545 20.8839C30.6478 20.701 30.533 20.4266 30.533 20.1293V12.7667C30.533 12.4923 30.6478 12.2179 30.8545 12.035C31.0383 11.8292 31.3139 11.7149 31.5895 11.7149H51.2497C51.5483 11.7149 51.8009 11.8292 52.0077 12.035C52.1914 12.2179 52.3062 12.4923 52.3062 12.7667V20.1293C52.3062 20.4266 52.1914 20.701 52.0077 20.8839C51.8009 21.0668 51.5483 21.1811 51.2727 21.204H51.2497ZM25.3423 32.8882H14.1112C12.9858 32.8882 11.9522 33.3455 11.2173 34.1C10.4594 34.8317 10 35.8607 10 36.9811V45.8528C10 46.9732 10.4594 47.9793 11.2173 48.7338C11.9522 49.4655 12.9858 49.9228 14.1112 49.9228H27.708V48.2079H14.1112C13.4451 48.2079 12.848 47.9564 12.4346 47.522H12.4116C11.9982 47.0875 11.7226 46.493 11.7226 45.8528V36.9811C11.7226 36.318 11.9982 35.7235 12.4116 35.3119L12.4346 35.289C12.848 34.8775 13.4451 34.6031 14.1112 34.6031H15.7189V38.4902H18.1535V34.6031H20.4962V38.4902H22.9078V34.6031H25.3423V40.7996H27.7769V32.8882H27.708H25.3423ZM36.4357 61.3098C35.3102 61.7671 34.2537 62.3616 33.1513 63.0475L31.8421 61.264C33.358 60.4637 34.759 59.7778 36.2289 59.2976C37.7907 58.7717 39.4674 58.4973 41.5115 58.4973C43.4637 58.4973 45.1174 58.7946 46.6792 59.2976C48.1261 59.7778 49.5042 60.4409 50.9971 61.1954L49.5501 63.1618C48.3788 62.4302 47.2534 61.8128 46.0591 61.3326C44.6121 60.7381 43.0962 60.3951 41.2818 60.3951C39.4214 60.3951 37.8826 60.7381 36.4357 61.3098ZM45.416 62.9103C46.4495 63.3219 47.4601 63.8935 48.5166 64.5566L46.7883 66.8893C45.4825 66.372 44.0959 66.0657 42.4657 66.0657C40.1919 66.0657 38.4234 66.5916 36.7009 67.4833L39.2962 71.2104C39.3343 71.2652 39.3729 71.3189 39.412 71.3714C39.2152 71.1851 39.0281 70.9703 38.8472 70.7303L34.1848 64.4194C35.1495 63.8021 36.0911 63.299 37.0558 62.9103C38.319 62.4073 39.6511 62.11 41.2818 62.11C42.8666 62.11 44.1757 62.4073 45.416 62.9103ZM35.494 57.7199C34.093 58.2001 32.7608 58.8403 31.3369 59.5949V28.2465H35.494V57.7199ZM40.6158 56.7824C39.3755 56.8282 38.2731 56.9882 37.2166 57.2397V28.2465H40.5698L40.6158 56.7824ZM45.6227 57.2397C44.5891 56.9882 43.5097 56.8282 42.3383 56.7824L42.2924 28.2465H45.6227V57.2397ZM51.6861 59.6177C50.2162 58.8632 48.8152 58.2229 47.3452 57.7199V28.2465H51.6861V59.6177ZM55.3609 32.8882H55.315V40.7996H57.7266V34.6031H60.276V38.4902H62.7105V34.6031H65.0303V38.4902H67.4648V34.6031H68.8888C69.5549 34.6031 70.152 34.8775 70.5884 35.289V35.3119C71.0018 35.7235 71.2774 36.318 71.2774 36.9811V45.8528C71.2774 46.493 71.0018 47.0875 70.5884 47.522C70.152 47.9564 69.5549 48.2079 68.8888 48.2079H55.3609V49.9228H68.8888C70.0142 49.9228 71.0478 49.4655 71.7827 48.7338H71.8057C72.5407 47.9793 73 46.9732 73 45.8528V36.9811C73 35.8607 72.5407 34.8317 71.8057 34.1H71.7827C71.0478 33.3455 70.0142 32.8882 68.8888 32.8882H57.7266H55.3609ZM54.0288 23.4677C54.0288 22.8503 53.7991 22.3015 53.4087 21.89C53.7991 21.4098 54.0288 20.8153 54.0288 20.1293V12.7667C54.0288 12.0121 53.7302 11.3262 53.2249 10.8232C52.7197 10.3201 52.0077 10 51.2497 10H31.5895C30.8316 10 30.1425 10.3201 29.6373 10.8232C29.132 11.3262 28.8104 12.0121 28.8104 12.7667V20.1293C28.8104 20.8153 29.0401 21.4098 29.4535 21.89C29.0631 22.3015 28.8104 22.8503 28.8104 23.4677V25.9829C28.8104 26.6002 29.0631 27.1718 29.4765 27.5834L29.6143 27.7206V59.8692L29.7521 61.4698L37.3314 71.6906C37.8137 72.3308 38.342 72.8339 38.9162 73.1997C39.697 73.7256 40.5468 73.9771 41.4196 74C42.2694 74 43.1192 73.7713 43.8771 73.2683C44.3824 72.9482 44.8418 72.5138 45.2552 71.9879L53.3627 61.0125L53.4087 59.5949V27.5377C53.7991 27.1261 54.0288 26.5773 54.0288 25.9829V23.4677ZM51.2497 22.9189H51.755C51.9158 22.9189 52.0536 22.9646 52.1455 23.079C52.2373 23.1704 52.3062 23.3076 52.3062 23.4677V25.9829C52.3062 26.1429 52.2373 26.2801 52.1455 26.3716C52.0536 26.4859 51.9158 26.5316 51.755 26.5316H31.0842C30.9464 26.5316 30.8086 26.4859 30.6938 26.3716C30.6019 26.2801 30.533 26.1429 30.533 25.9829V23.4677C30.533 23.3076 30.6019 23.1704 30.6938 23.079C30.8086 22.9646 30.9464 22.9189 31.0842 22.9189H31.5895H51.2497Z"
              fill="#BD8D50"/>
    </g>
    <g id="pc">
        <path d="M68.1522 12H16.8479C14.7265 12 13.0001 13.7183 13.0001 15.8298V55.4043C13.0001 57.5157 14.7265 59.234 16.8479 59.234H34.8044V61.7872H23.2609C22.88 61.7872 22.5196 61.9557 22.2746 62.2468L15.8616 69.9064C15.5435 70.2868 15.4742 70.8166 15.6858 71.2647C15.8975 71.7128 16.3502 72 16.8479 72H68.1522C68.6499 72 69.1026 71.7128 69.313 71.2647C69.5246 70.8153 69.4554 70.2855 69.1373 69.9064L62.7242 62.2468C62.4805 61.9557 62.1201 61.7872 61.7392 61.7872H50.1957V59.234H68.1522C70.2737 59.234 72.0001 57.5157 72.0001 55.4043V15.8298C72.0001 13.7183 70.2737 12 68.1522 12ZM61.1376 64.3404L65.4139 69.4468H19.5863L23.8625 64.3404H34.8044V66.8936H50.1957V64.3404H61.1376ZM47.6305 64.3404H37.3696V59.234H47.6305V64.3404ZM69.4348 55.4043C69.4348 56.1077 68.8602 56.6809 68.1522 56.6809H50.1957H34.8044H16.8479C16.1399 56.6809 15.5653 56.1077 15.5653 55.4043V15.8298C15.5653 15.1264 16.1399 14.5532 16.8479 14.5532H68.1522C68.8602 14.5532 69.4348 15.1264 69.4348 15.8298V55.4043Z"
              fill="#BD8D50"/>
        <path d="M18.1305 54.1277H66.8696V17.1064H18.1305V54.1277ZM20.6957 19.6596H64.3044V51.5745H20.6957V19.6596Z"
              fill="#BD8D50"/>
        <path d="M35.1519 23.8901L24.0651 35.6169L35.1519 47.3438L37.022 45.5923L27.5871 35.6169L37.022 25.6416L35.1519 23.8901Z"
              fill="#BD8D50"/>
        <path d="M47.978 25.6416L57.4128 35.6169L47.978 45.5923L49.848 47.3438L60.9349 35.6169L49.848 23.8901L47.978 25.6416Z"
              fill="#BD8D50"/>
    </g>
    <g id="scroll-top-icon">
        <path d="M17.9578 11.0753C18.3171 10.1599 19.3759 8.67673 19.9743 8.50578C20.5728 8.33483 21.817 7.72065 25.9321 10.2697C29.2262 12.288 32.8619 15.7066 34 16.3946C33.6176 13.7086 30.9947 8.42638 26.0688 5.24152C22.868 3.33142 21.5151 3.14207 21.2274 3.32266C21.2478 3.11273 21.0918 2.58148 21.0035 1.56804C20.9152 0.554602 21.3973 0.0852564 21.3641 0C21.0099 0.0100727 19.937 0.145248 19.5188 0.384957C19.1173 0.667295 18.2133 1.62891 17.7913 2.12117C17.2107 1.68204 15.2938 1.0962 12.3092 1.44583C5.58808 2.18495 1.68408 4.50641 0 6.22292C1.75446 6.12993 4.44497 5.8133 6.80428 5.69696C10.1495 5.48484 12.1175 5.54586 12.9257 5.78148C13.794 6.04003 15.0293 6.58369 15.4449 7.64939C15.8439 8.67247 15.5511 9.75833 15.4232 10.2176C15.2788 10.6342 13.0769 15.7458 13.0769 15.7458L15.7622 12.9233L16.1754 17C16.6497 15.3302 17.6586 12.0135 17.9578 11.0753Z"
              fill="currentColor"/>
    </g>
    <g id="btn-arrow">
        <path fill-rule="evenodd" clip-rule="evenodd"
              d="M12 22.7789C17.953 22.7789 22.7789 17.953 22.7789 12C22.7789 6.04695 17.953 1.22105 12 1.22105C6.04695 1.22105 1.22105 6.04695 1.22105 12C1.22105 17.953 6.04695 22.7789 12 22.7789ZM12 24C18.6274 24 24 18.6274 24 12C24 5.37258 18.6274 0 12 0C5.37258 0 0 5.37258 0 12C0 18.6274 5.37258 24 12 24Z"
              fill="currentColor"/>
        <path fill-rule="evenodd" clip-rule="evenodd"
              d="M13.0745 5.83862L18.1657 11.0238C18.4781 11.342 18.4781 11.8579 18.1657 12.1761L13.0745 17.3613C12.7621 17.6795 12.2555 17.6795 11.9431 17.3613C11.6307 17.0431 11.6307 16.5273 11.9431 16.2091L15.6686 12.4148H5.59998V10.7852H15.6686L11.9431 6.99089C11.6307 6.6727 11.6307 6.15681 11.9431 5.83862C12.2555 5.52043 12.7621 5.52043 13.0745 5.83862Z"
              fill="currentColor"/>
    </g>
    <g id="slider-arrow">
        <path fill-rule="evenodd" clip-rule="evenodd" d="M16 30.3719C23.9374 30.3719 30.3719 23.9374 30.3719 16C30.3719 8.0626 23.9374 1.62807 16 1.62807C8.0626 1.62807 1.62807 8.0626 1.62807 16C1.62807 23.9374 8.0626 30.3719 16 30.3719ZM16 32C24.8366 32 32 24.8366 32 16C32 7.16344 24.8366 0 16 0C7.16344 0 0 7.16344 0 16C0 24.8366 7.16344 32 16 32Z" fill="currentColor"/>
        <path fill-rule="evenodd" clip-rule="evenodd" d="M17.7237 7.9729L24.5119 14.7611C24.9284 15.1777 24.9284 15.8531 24.5119 16.2696L17.7237 23.0578C17.3071 23.4744 16.6317 23.4744 16.2152 23.0578C15.7986 22.6413 15.7986 21.9659 16.2152 21.5494L21.1825 16.582H7.75763V14.4487H21.1825L16.2152 9.4814C15.7986 9.06484 15.7986 8.38946 16.2152 7.9729C16.6317 7.55634 17.3071 7.55634 17.7237 7.9729Z" fill="currentColor"/>
    </g>
    <g id="cross">
        <path fill-rule="evenodd" clip-rule="evenodd"
              d="M29 4.85736L4.85714 29.0002L3 27.1431L27.1428 3.00022L29 4.85736Z" fill="currentColor"/>
        <path fill-rule="evenodd" clip-rule="evenodd"
              d="M27.1431 29L3.00028 4.85714L4.85742 3L29.0003 27.1428L27.1431 29Z" fill="currentColor"/>
    </g>
</svg>
