<svg xmlns="http://www.w3.org/2000/svg" viewBox="0 0 64 64" width="64" height="64" role="img" aria-label="IZUMI IT COMPANY">
  <rect width="64" height="64" rx="14" fill="#19BBBB"/>
  <g fill="#ffffff" transform="translate(32 33) scale(0.82) translate(-317.5 -20.5)">
    <path d="M318.8 22.4501C319.986 21.2274 322.696 19.5971 323.797 19.7601C324.898 19.9232 327.355 19.8416 332.521 27.0149C336.671 32.721 340.483 40.954 341.923 42.9103C343.024 38.264 342.092 27.7486 335.994 18.945C331.928 13.4835 329.811 12.1792 329.218 12.2608C329.387 11.9347 329.472 10.9565 329.98 9.24471C330.488 7.5329 331.589 7.12533 331.589 6.9623C330.997 6.71776 329.133 6.14713 328.286 6.22865C327.439 6.39168 325.322 7.28836 324.306 7.77745C323.628 6.63624 320.833 4.27232 315.666 2.64203C304.063 -1.10766 296.101 -0.211022 292.205 1.33776C295.169 2.47897 299.828 3.94626 303.809 5.49504C309.483 7.61443 312.702 9.16317 313.888 10.1413C315.158 11.201 316.852 12.9944 316.852 15.0322C316.852 16.9886 315.666 18.5374 315.158 19.1895C314.65 19.7601 307.705 26.4443 307.705 26.4443L313.972 23.8359L312.024 30.7646C313.888 28.4007 317.699 23.7544 318.8 22.4501Z"/>
  </g>
</svg>
