<svg width="380" height="62" viewBox="0 0 380 62" fill="none" xmlns="http://www.w3.org/2000/svg">
<path d="M0 61.5577V31.2339H4.086V61.5577H0ZM14.2067 59.2202C14.3324 59.2202 14.7096 59.2202 15.2754 59.2202C15.904 59.2202 16.5954 59.2202 17.4755 59.2202C18.2927 59.2202 19.2356 59.2202 20.1786 59.2202C21.1215 59.2202 22.0644 59.2202 22.9445 59.2202C23.8245 59.2202 24.5789 59.2202 25.2075 59.2202C25.8361 59.2202 26.2133 59.2202 26.4019 59.2202C27.9734 59.2202 29.2306 59.0939 30.1736 58.9044C31.1793 58.6517 31.9965 58.399 32.5623 58.0199C33.1909 57.704 33.6309 57.325 34.0081 56.9459C34.3224 56.5669 34.6367 56.251 34.951 55.9352L35.8311 56.5669C35.5797 57.0091 35.2653 57.5145 34.8882 58.0831C34.511 58.6516 34.0081 59.2202 33.3795 59.7888C32.7509 60.2942 31.9965 60.7996 31.1165 61.1786C30.2364 61.5577 29.2306 61.7472 28.0363 61.7472C27.4705 61.7472 26.5904 61.7472 25.5218 61.7472C24.4532 61.7472 23.2588 61.7472 21.9387 61.684C20.6186 61.684 19.2985 61.6209 17.9155 61.6209C16.5326 61.6209 15.2754 61.5577 14.081 61.5577C12.8866 61.5577 11.8808 61.4945 11.0636 61.4945C10.2464 61.4945 9.74355 61.4945 9.4921 61.4945V59.4098L27.2819 33.5083H27.0305C26.4019 33.5083 25.5847 33.5083 24.6417 33.5083C23.6988 33.5083 22.693 33.4451 21.6244 33.4451C20.5557 33.4451 19.4242 33.3819 18.2927 33.3819C17.1612 33.3819 16.0926 33.3187 15.0868 33.3187C14.081 33.2556 13.2009 33.2555 12.3837 33.2555C11.5665 33.2555 10.9379 33.1924 10.4979 33.1924L10.7493 31.2339H32.0594V33.1292L14.2067 59.2202ZM63.0502 50.8812C63.0502 52.3974 62.7987 53.8504 62.233 55.1771C61.7301 56.5037 60.9129 57.704 59.8442 58.7148C58.7756 59.7256 57.5183 60.5469 55.9468 61.1155C54.3753 61.684 52.6152 61.9999 50.5407 61.9999C48.8435 61.9999 47.3347 61.8104 45.9518 61.4313C44.5688 61.0523 43.4373 60.4837 42.4316 59.5993C41.4886 58.778 40.7343 57.6409 40.1686 56.251C39.6657 54.8612 39.4142 53.2187 39.4142 51.2602V31.2339H43.3745V51.892C43.3745 53.4082 43.5631 54.6717 43.8774 55.6825C44.1917 56.6932 44.6946 57.4513 45.3232 58.0831C45.9518 58.6516 46.7061 59.0307 47.6491 59.2834C48.592 59.5361 49.6607 59.6624 50.855 59.6624C52.3637 59.6624 53.6838 59.5361 54.8153 59.2202C55.9468 58.9044 56.8897 58.3989 57.4555 57.7672C57.9584 57.1986 58.3984 56.3774 58.6498 55.3666C58.9013 54.3558 59.027 53.1555 59.027 51.8288V31.2971H62.9873V50.8812H63.0502ZM100.453 61.5577L98.0012 38.4358L87.3776 61.5577H85.4917L73.9881 38.4358L71.9765 61.5577H69.2735L72.3537 31.0444H74.8053L87.0633 55.9352L98.5669 31.0444H101.081L104.413 61.5577H100.453ZM110.762 61.5577V31.2339H114.848V61.5577H110.762Z" fill="#00C5D1"/>
<path d="M131.445 61.5573V31.2336H135.531V61.5573H131.445ZM148.921 61.5573V33.5711L139.617 33.4447L139.932 31.2336H162.31L161.996 33.3184L153.007 33.5711V61.5573H148.921V61.5573ZM186.701 61.9364C184.5 61.9364 182.678 61.5574 181.169 60.7993C179.66 60.0412 178.403 58.9672 177.46 57.6405C176.517 56.2507 175.826 54.6081 175.386 52.7129C174.946 50.7545 174.757 48.6066 174.757 46.2692C174.757 43.3631 175.197 40.9625 176.014 39.0041C176.831 37.0457 177.9 35.4663 179.22 34.266C180.54 33.0657 182.049 32.1812 183.683 31.6758C185.318 31.1704 187.015 30.8546 188.649 30.8546C189.278 30.8546 189.907 30.8546 190.661 30.9177C191.415 30.9809 192.107 30.9809 192.861 31.0441C193.553 31.1073 194.244 31.1704 194.81 31.2336C195.438 31.2968 195.941 31.36 196.256 31.4232L195.187 35.0241C194.81 34.8977 194.244 34.7714 193.553 34.5819C192.861 34.3924 192.107 34.266 191.227 34.1397C190.409 34.0133 189.655 33.887 188.838 33.8238C188.021 33.6974 187.392 33.6974 186.889 33.6974C185.695 33.6974 184.689 33.8238 183.872 34.0133C183.055 34.2028 182.237 34.5819 181.483 35.1504C180.603 35.8454 179.974 37.172 179.597 39.0673C179.22 40.9625 179.094 43.3631 179.094 46.206C179.094 50.565 179.723 53.9132 180.98 56.1875C182.237 58.4618 184.312 59.5358 187.141 59.5358C187.958 59.5358 188.712 59.5358 189.592 59.4726C190.409 59.4094 191.29 59.3463 192.107 59.2199C192.924 59.0936 193.804 58.9672 194.558 58.7777C195.376 58.5882 196.13 58.3986 196.821 58.1459V59.7253C196.067 60.1043 195.313 60.4202 194.433 60.6729C193.615 60.9256 192.735 61.1783 191.855 61.3678C190.975 61.5573 190.095 61.6837 189.215 61.81C188.335 61.9364 187.518 61.9364 186.701 61.9364ZM230.138 46.2692C230.138 48.6698 229.824 50.8809 229.195 52.7761C228.566 54.7345 227.686 56.377 226.429 57.7037C225.235 59.0935 223.663 60.1043 221.84 60.8624C220.017 61.6205 217.88 61.9364 215.428 61.9364C212.977 61.9364 210.839 61.5574 209.017 60.7993C207.194 60.0412 205.748 58.9672 204.616 57.6405C203.485 56.2507 202.605 54.6081 202.102 52.7129C201.599 50.7545 201.285 48.6066 201.285 46.2692C201.285 43.9317 201.536 41.... (truncated)
</svg>
