<svg width="379" height="47" viewBox="0 0 379 47" fill="none" xmlns="http://www.w3.org/2000/svg">
<path d="M20.488 46.832C16.4347 46.832 12.872 45.872 9.8 43.952C6.728 42.032 4.31733 39.3227 2.568 35.824C0.861334 32.3253 0.00800014 28.2293 0.00800014 23.536C0.00800014 18.8427 0.861334 14.768 2.568 11.312C4.31733 7.81333 6.728 5.104 9.8 3.184C12.872 1.22133 16.4347 0.239998 20.488 0.239998C24.0293 0.239998 27.1867 1.008 29.96 2.544C32.776 4.03733 35.1013 6.17066 36.936 8.944L33.48 10.992C32.0293 8.816 30.1947 7.13066 27.976 5.936C25.7573 4.74133 23.2613 4.144 20.488 4.144C17.288 4.144 14.4507 4.93333 11.976 6.512C9.50133 8.048 7.56 10.2667 6.152 13.168C4.744 16.0693 4.04 19.5253 4.04 23.536C4.04 27.5467 4.744 31.024 6.152 33.968C7.56 36.8693 9.50133 39.1093 11.976 40.688C14.4507 42.224 17.288 42.992 20.488 42.992C23.2613 42.992 25.7573 42.3947 27.976 41.2C30.1947 40.0053 32.0293 38.32 33.48 36.144L36.936 38.256C35.1013 40.944 32.776 43.056 29.96 44.592C27.1867 46.0853 24.0293 46.832 20.488 46.832ZM63.4255 46.832C59.3722 46.832 55.8095 45.872 52.7375 43.952C49.6655 42.032 47.2548 39.3227 45.5055 35.824C43.7988 32.3253 42.9455 28.2293 42.9455 23.536C42.9455 18.8427 43.7988 14.768 45.5055 11.312C47.2548 7.81333 49.6655 5.104 52.7375 3.184C55.8095 1.22133 59.3722 0.239998 63.4255 0.239998C67.4362 0.239998 70.9775 1.22133 74.0495 3.184C77.1215 5.104 79.5108 7.81333 81.2175 11.312C82.9668 14.768 83.8415 18.8427 83.8415 23.536C83.8415 28.2293 82.9668 32.3253 81.2175 35.824C79.5108 39.3227 77.1215 42.032 74.0495 43.952C70.9775 45.872 67.4362 46.832 63.4255 46.832ZM63.4255 42.992C66.6255 42.992 69.4415 42.224 71.8735 40.688C74.3482 39.1093 76.2682 36.8693 77.6335 33.968C79.0415 31.024 79.7455 27.5467 79.7455 23.536C79.7455 19.5253 79.0415 16.0693 77.6335 13.168C76.2682 10.2667 74.3482 8.048 71.8735 6.512C69.4415 4.93333 66.6255 4.144 63.4255 4.144C60.2255 4.144 57.3882 4.93333 54.9135 6.512C52.4388 8.048 50.4975 10.2667 49.0895 13.168C47.6815 16.0693 46.9775 19.5253 46.9775 23.536C46.9775 27.5467 47.6815 31.024 49.0895 33.968C50.4975 36.8693 52.4388 39.1093 54.9135 40.688C57.3882 42.224 60.2255 42.992 63.4255 42.992ZM92.1885 46V1.2H96.0925L121.373 38.96V1.2H125.341V46H121.501L96.0925 7.856V46H92.1885ZM147.84 46V4.912H133.12V1.2H166.592V4.912H151.872V46H147.84ZM163.779 46L181.763 1.2H185.219L203.139 46H198.787L193.475 32.496H173.443L168.131 46H163.779ZM174.787 28.72H192.067L183.491 6.768L174.787 28.72ZM225.926 46.832C221.872 46.832 218.31 45.872 215.238 43.952C212.166 42.032 209.755 39.3227 208.006 35.824C206.299 32.3253 205.446 28.2293 205.446 23.536C205.446 18.8427 206.299 14.768 208.006 11.312C209.755 7.81333 212.166 5.104 215.238 3.184C218.31 1.22133 221.872 0.239998 225.926 0.239998C229.467 0.239998 232.624 1.008 235.398 2.544C238.214 4.03733 240.539 6.17066 242.374 8.944L238.918 10.992C237.467 8.816 235.632 7.13066 233.414 5.936C231.195 4.74133 228.699 4.144 225.926 4.144C222.726 4.144 219.888 4.93333 217.414 6.512C214.939 8.048 212.998 10.2667 211.59 13.168C210.182 16.0693 209.478 19.5253 209.478 23.536C209.478 27.5467 210.182 31.024 211.59 33.968C212.998 36.8693 214.939 39.1093 217.414 40.688C219.888 42.224 222.726 42.992 225.926 42.992C228.699 42.992 231.195 42.3947 233.414 41.2C235.632 40.0053 237.467 38.32 238.918 36.144L242.374 38.256C240.539 40.944 238.214 43.056 235.398 44.592C232.624 46.0853 229.467 46.832 225.926 46.832ZM262.527 46V4.912H247.807V1.2H281.279V4.912H266.559V46H262.527ZM322.363 46.768C317.243 46.768 313.275 45.232 310.459 42.16C307.685 39.0453 306.299 34.5227 306.299 28.592V1.2H310.331V28.464C310.331 32.9867 311.333 36.528 313.339 39.088C315.387 41.6053 318.395 42.864 322.363 42.864C326.373 42.864 329.381 41.6053 331.387 39.088C333.435 36.528 334.458 32.9867 334.458 28.464V1.2H338.427V28.592C338.427 34.5227 337.04 39.0453 334.267 42.16C331.493 45.232 327.525 46.768 322.363 46.768ZM363.282 46.768C359.869 46.768 356.754 46.1707 353.938 44.976C351.122 43.7387 348.754 41.8187 346.834 39.216L349.97 37.04C351.549 38.9173 353.426 40.3893 355.602 41.456C357.821 42.48 360.402 42.992 363.346 42.992C365.351 42.992 367.186 42.6933 368.85 42.096C370.557 41.4987 371.922 40.5813 372.946 39.344C373.97 38.1067 374.482 36.5707 374.482 34.736C374.482 33.1147 374.141 31.7067 373.458 30.512C372.818 29.3173 371.538 28.272 369.618 27.376C367.698 26.48 364.839 25.6907 361.042 25.008C352.679 23.4293 348.498 19.2907 348.498 12.592C348.498 10.16 349.095 8.02666 350.29 6.192C351.485 4.31467 353.149 2.864 355.282 1.84C357.415 0.773331 359.89 0.239998 362.706 0.239998C365.693 0.239998 368.381 0.815998 370.77 1.968C373.159 3.07733 375.335 4.57066 377.298 6.448L374.482 9.136C372.775 7.64267 370.983 6.448 369.106 5.552C367.229 4.61333 365.074 4.144 362.642 4.144C359.741 4.144 357.33 4.86933 355.41 6.32C353.533 7.728 352.594 9.776 352.594 12.464C352.594 14.8107 353.341 16.7093 354.834 18.16C356.37 19.6107 359.122 20.6987 363.09 21.424C368.594 22.4053 372.541 23.9413 374.93 26.032C377.319 28.1227 378.514 31.0027 378.514 34.672C378.514 37.1893 377.831 39.3653 376.466 41.2C375.143 42.992 373.33 44.3787 371.026 45.36C368.722 46.2987 366.141 46.768 363.282 46.768Z" fill="#333333"/>
</svg>
