<svg width="230" height="54" viewBox="0 0 230 54" fill="none" xmlns="http://www.w3.org/2000/svg">
	<path
		d="M0 35.7432V18.1359H2.47311V35.7432H0ZM8.5988 34.386C8.6749 34.386 8.90318 34.386 9.24561 34.386C9.62609 34.386 10.0446 34.386 10.5773 34.386C11.0719 34.386 11.6426 34.386 12.2133 34.386C12.7841 34.386 13.3548 34.386 13.8874 34.386C14.4201 34.386 14.8767 34.386 15.2572 34.386C15.6376 34.386 15.8659 34.386 15.9801 34.386C16.9313 34.386 17.6922 34.3126 18.2629 34.2026C18.8717 34.0559 19.3663 33.9091 19.7088 33.689C20.0892 33.5056 20.3556 33.2855 20.5839 33.0654C20.7741 32.8454 20.9643 32.662 21.1546 32.4785L21.6872 32.8454C21.5351 33.1021 21.3448 33.3956 21.1165 33.7257C20.8882 34.0559 20.5839 34.386 20.2034 34.7161C19.8229 35.0096 19.3663 35.303 18.8337 35.5231C18.301 35.7432 17.6922 35.8533 16.9693 35.8533C16.6269 35.8533 16.0942 35.8533 15.4474 35.8533C14.8006 35.8533 14.0777 35.8533 13.2787 35.8166C12.4797 35.8166 11.6807 35.7799 10.8436 35.7799C10.0066 35.7799 9.24561 35.7432 8.5227 35.7432C7.7998 35.7432 7.19104 35.7065 6.69641 35.7065C6.20179 35.7065 5.89741 35.7065 5.74522 35.7065V34.496L16.5127 19.4565H16.3606C15.9801 19.4565 15.4855 19.4565 14.9147 19.4565C14.344 19.4565 13.7353 19.4198 13.0884 19.4198C12.4416 19.4198 11.7568 19.3831 11.0719 19.3831C10.387 19.3831 9.74024 19.3464 9.13147 19.3464C8.52271 19.3098 7.99004 19.3097 7.49542 19.3097C7.0008 19.3097 6.62032 19.2731 6.35399 19.2731L6.50618 18.1359H19.4044V19.2364L8.5988 34.386ZM38.1619 29.544C38.1619 30.4244 38.0097 31.268 37.6673 32.0384C37.3629 32.8087 36.8683 33.5056 36.2215 34.0925C35.5747 34.6794 34.8137 35.1563 33.8625 35.4865C32.9113 35.8166 31.846 36 30.5904 36C29.5631 36 28.65 35.89 27.8129 35.6699C26.9759 35.4498 26.291 35.1196 25.6823 34.6061C25.1115 34.1292 24.655 33.469 24.3125 32.662C24.0082 31.855 23.856 30.9012 23.856 29.7641V18.1359H26.253V30.1309C26.253 31.0113 26.3671 31.7449 26.5574 32.3318C26.7476 32.9187 27.052 33.3589 27.4324 33.7257C27.8129 34.0559 28.2695 34.276 28.8402 34.4227C29.4109 34.5694 30.0578 34.6428 30.7807 34.6428C31.6938 34.6428 32.4928 34.5694 33.1777 34.386C33.8625 34.2026 34.4333 33.9091 34.7757 33.5423C35.0801 33.2122 35.3464 32.7353 35.4986 32.1484C35.6508 31.5615 35.7269 30.8645 35.7269 30.0942V18.1726H38.1239V29.544H38.1619ZM60.8004 35.7432L59.3165 22.3177L52.8864 35.7432H51.745L44.7823 22.3177L43.5647 35.7432H41.9287L43.793 18.0259H45.2769L52.6962 32.4785L59.6589 18.0259H61.1808L63.1974 35.7432H60.8004ZM67.0402 35.7432V18.1359H69.5133V35.7432H67.0402Z"
		fill="url(#paint0_radial)"/>
	<path
		d="M79.5591 35.7433V18.136H82.0322V35.7433H79.5591ZM90.1364 35.7433V19.4933L84.5053 19.4199L84.6955 18.136H98.2406L98.0503 19.3466L92.6095 19.4933V35.7433H90.1364ZM113.003 35.9634C111.671 35.9634 110.568 35.7434 109.655 35.3032C108.742 34.863 107.981 34.2394 107.41 33.4691C106.839 32.6621 106.421 31.7083 106.155 30.6079C105.888 29.4707 105.774 28.2236 105.774 26.8663C105.774 25.179 106.04 23.7851 106.535 22.6479C107.03 21.5108 107.676 20.5937 108.475 19.8968C109.274 19.1998 110.188 18.6863 111.177 18.3928C112.166 18.0994 113.193 17.916 114.183 17.916C114.563 17.916 114.944 17.9159 115.4 17.9526C115.857 17.9893 116.275 17.9893 116.732 18.026C117.15 18.0627 117.569 18.0994 117.911 18.136C118.292 18.1727 118.596 18.2094 118.786 18.2461L118.14 20.337C117.911 20.2636 117.569 20.1902 117.15 20.0802C116.732 19.9702 116.275 19.8968 115.743 19.8234C115.248 19.7501 114.791 19.6767 114.297 19.64C113.802 19.5666 113.422 19.5666 113.117 19.5666C112.394 19.5666 111.786 19.64 111.291 19.7501C110.796 19.8601 110.302 20.0802 109.845 20.4103C109.312 20.8138 108.932 21.5841 108.704 22.6846C108.475 23.7851 108.399 25.179 108.399 26.8296C108.399 29.3607 108.78 31.3048 109.541 32.6254C110.302 33.9459 111.557 34.5695 113.269 34.5695C113.764 34.5695 114.221 34.5695 114.753 34.5328C115.248 34.4962 115.781 34.4595 116.275 34.3861C116.77 34.3128 117.303 34.2394 117.759 34.1293C118.254 34.0193 118.71 33.9093 119.129 33.7625V34.6796C118.672 34.8997 118.216 35.0831 117.683 35.2298C117.188 35.3765 116.656 35.5233 116.123 35.6333C115.59 35.7433 115.058 35.8167 114.525 35.8901C113.992 35.9634 113.498 35.9634 113.003 35.9634ZM139.294 26.8663C139.294 28.2603 139.104 29.5441 138.723 30.6446C138.343 31.7817 137.81 32.7354 137.049 33.5058C136.326 34.3128 135.375 34.8997 134.272 35.3398C133.168 35.78 131.875 35.9634 130.391 35.9634C128.907 35.9634 127.613 35.7434 126.51 35.3032C125.407 34.863 124.532 34.2394 123.847 33.4691C123.162 32.6621 122.629 31.7083 122.325 30.6079C122.02 29.4707 121.83 28.2236 121.83 26.8663C121.83 25.5091 121.982 24.2619 122.325 23.1615C122.667 22.061 123.162 21.144 123.885 20.3736C124.57 19.6033 125.483 18.9797 126.548 18.5762C127.613 18.1727 128.907 17.9526 130.391 17.9526C131.875 17.9526 133.168 18.1727 134.272 18.5762C135.375 18.9797 136.288 19.6033 137.049 20.3736C137.772 21.144 138.343 22.061 138.723 23.1615C139.104 24.2619 139.294 25.4724 139.294 26.8663ZM136.631 26.8663C136.631 25.7292 136.517 24.7021 136.288 23.7851C136.06 22.868 135.68 22.061 135.147 21.4007C134.652 20.7405 134.005 20.2269 133.206 19.8601C132.446 19.4933 131.494 19.3099 130.429 19.3099C129.478 19.3099 128.603 19.4199 127.804 19.6033C127.005 19.7867 126.358 20.0802 125.863 20.4837C125.597 20.7038 125.369 21.0339 125.216 21.4374C125.026 21.8776 124.912 22.3545 124.798 22.9414C124.684 23.4916 124.608 24.1152 124.57 24.8121C124.532 25.4724 124.494 26.1694 124.494 26.903C124.494 28.0035 124.608 29.0306 124.798 29.9843C124.988 30.938 125.331 31.745 125.787 32.442C126.244 33.1389 126.852 33.6525 127.575 34.056C128.336 34.4595 129.288 34.6429 130.429 34.6429C131.494 34.6429 132.446 34.5328 133.168 34.3494C133.929 34.166 134.614 33.7992 135.185 33.3223C135.451 33.1023 135.68 32.8088 135.832 32.3686C136.022 31.9284 136.174 31.4149 136.288 30.828C136.403 30.2411 136.479 29.6175 136.555 28.9205C136.631 28.2236 136.631 27.5633 136.631 26.8663ZM161.4 35.7433L159.916 22.3178L153.486 35.7433H152.345L145.382 22.3178L144.164 35.7433H142.528L144.393 18.026H145.876L153.296 32.4787L160.258 18.026H161.78L163.797 35.7433H161.4ZM171.102 27.7834L171.635 27.71C172.282 27.6 172.89 27.4899 173.461 27.3065C174.032 27.1231 174.564 26.8663 174.983 26.5362C175.401 26.2061 175.744 25.7659 176.01 25.2157C176.277 24.6654 176.391 23.9318 176.391 23.0147C176.391 22.3545 176.277 21.7676 176.086 21.2907C175.858 20.8138 175.592 20.4103 175.211 20.1169C174.831 19.8234 174.374 19.5666 173.803 19.4199C173.271 19.2732 172.662 19.1998 172.015 19.1998C171.673 19.1998 171.368 19.1998 171.14 19.2365C170.874 19.2365 170.569 19.2732 170.227 19.3099V35.7067H167.754V18.1727C168.515 18.0994 169.314 18.0627 170.227 18.026C171.14 17.9893 172.015 17.9893 172.89 17.9893C173.956 17.9893 174.869 18.0994 175.668 18.3194C176.467 18.5395 177.114 18.8697 177.608 19.3099C178.103 19.7134 178.483 20.2269 178.75 20.8505C179.016 21.4374 179.13 22.1344 179.13 22.868C179.13 23.675 178.978 24.4086 178.674 25.0689C178.369 25.7292 177.913 26.3528 177.266 26.8663C176.657 27.3799 175.858 27.7834 174.907 28.0768C173.956 28.3703 172.814 28.517 171.483 28.517H171.33L171.102 27.7834ZM192.599 35.7433L190.316 29.2873L183.277 29.3607L180.804 35.7067H178.978L186.207 18.2461L188.338 17.6592L195.11 35.7067H192.599V35.7433ZM189.936 28.1502L186.892 19.9335L183.734 28.1502H189.936ZM212.003 35.8167L199.105 22.0977H199.067C199.105 23.3816 199.105 24.592 199.143 25.6558C199.143 26.1327 199.143 26.5729 199.143 27.0498C199.143 27.4899 199.143 27.8934 199.143 28.2969C199.143 28.6637 199.143 28.9939 199.143 29.2873C199.143 29.5808 199.143 29.7642 199.143 29.8376V35.78H197.507V18.0627H198.611L211.509 31.745C211.471 30.5345 211.471 29.4341 211.471 28.407C211.471 27.9668 211.471 27.5266 211.471 27.0864C211.471 26.6462 211.471 26.2061 211.471 25.8392C211.471 25.4357 211.471 25.0689 211.471 24.7755C211.471 24.482 211.471 24.2252 211.471 24.0418V18.2094H213.107V35.8901H212.003V35.8167ZM224.255 35.7433H221.858V28.9939L215.58 18.136H218.357L223.494 27.4899L228.288 18.136H230L224.255 28.9939V35.7433Z"
		fill="#333333"/>
	<path
		d="M143.211 10.1026C143.744 9.55238 144.961 8.81875 145.456 8.89211C145.95 8.96548 147.054 8.92878 149.375 12.1568C151.239 14.7245 152.951 18.4294 153.598 19.3098C154.093 17.2189 153.674 12.4869 150.935 8.52529C149.108 6.06761 148.157 5.48069 147.891 5.51738C147.967 5.37065 148.005 4.93046 148.233 4.16014C148.462 3.38982 148.956 3.20642 148.956 3.13305C148.69 3.02301 147.853 2.76623 147.472 2.80291C147.092 2.87627 146.141 3.27978 145.684 3.49987C145.38 2.98633 144.124 1.92256 141.803 1.18892C136.591 -0.498448 133.014 -0.0949605 131.264 0.601995C132.596 1.11554 134.688 1.77583 136.477 2.47278C139.026 3.42651 140.472 4.12345 141.004 4.56363C141.575 5.0405 142.336 5.8475 142.336 6.76455C142.336 7.64491 141.803 8.34188 141.575 8.63533C141.347 8.89211 138.227 11.9 138.227 11.9L141.042 10.7262L140.167 13.8442C141.004 12.7804 142.716 10.6895 143.211 10.1026Z"
		fill="url(#paint1_radial)"/>
	<defs>
		<radialGradient id="paint0_radial" cx="0" cy="0" r="1" gradientUnits="userSpaceOnUse"
										gradientTransform="translate(113.968 29.3166) rotate(-90.2747) scale(42.2554 172.768)">
			<stop stop-color="#00CC99"/>
			<stop offset="1" stop-color="#009B74"/>
		</radialGradient>
		<radialGradient id="paint1_radial" cx="0" cy="0" r="1" gradientUnits="userSpaceOnUse"
										gradientTransform="translate(142.543 9.64973) rotate(-90.3859) scale(14.443 16.6287)">
			<stop stop-color="#00CC99"/>
			<stop offset="1" stop-color="#009B74"/>
		</radialGradient>
	</defs>
</svg>
