<svg width="512" height="80" viewBox="0 0 512 80" fill="none" xmlns="http://www.w3.org/2000/svg">
<path d="M0 79.4293V40.3022H5.50535V79.4293H0ZM19.1417 76.4132C19.3111 76.4132 19.8192 76.4132 20.5815 76.4132C21.4285 76.4132 22.3602 76.4132 23.5459 76.4132C24.647 76.4132 25.9175 76.4132 27.188 76.4132C28.4584 76.4132 29.7289 76.4132 30.9146 76.4132C32.1004 76.4132 33.1168 76.4132 33.9638 76.4132C34.8107 76.4132 35.3189 76.4132 35.573 76.4132C37.6905 76.4132 39.3844 76.2502 40.6549 76.0057C42.01 75.6796 43.1111 75.3535 43.8734 74.8644C44.7204 74.4569 45.3133 73.9678 45.8214 73.4787C46.2449 72.9896 46.6684 72.582 47.0919 72.1745L48.2777 72.9896C47.9389 73.5602 47.5154 74.2123 47.0072 74.9459C46.499 75.6796 45.8214 76.4132 44.9745 77.1469C44.1275 77.799 43.1111 78.4511 41.9253 78.9402C40.7396 79.4293 39.3844 79.6738 37.7752 79.6738C37.0129 79.6738 35.8271 79.6738 34.3873 79.6738C32.9474 79.6738 31.3381 79.6738 29.5595 79.5923C27.7808 79.5923 26.0022 79.5108 24.1388 79.5108C22.2755 79.5108 20.5815 79.4293 18.9723 79.4293C17.363 79.4293 16.0079 79.3478 14.9068 79.3478C13.8057 79.3478 13.1281 79.3478 12.7894 79.3478V76.6578L36.7588 43.2367H36.42C35.573 43.2367 34.472 43.2367 33.2015 43.2367C31.931 43.2367 30.5759 43.1552 29.136 43.1552C27.6961 43.1552 26.1716 43.0737 24.647 43.0737C23.1225 43.0737 21.6826 42.9922 20.3274 42.9922C18.9723 42.9107 17.7865 42.9106 16.6855 42.9106C15.5844 42.9106 14.7374 42.8291 14.1445 42.8291L14.4833 40.3022H43.1958V42.7476L19.1417 76.4132ZM84.9517 65.6533C84.9517 67.6096 84.613 69.4845 83.8507 71.1963C83.1731 72.9081 82.072 74.4569 80.6322 75.7611C79.1923 77.0653 77.4984 78.1251 75.3809 78.8587C73.2635 79.5923 70.892 79.9999 68.0969 79.9999C65.8101 79.9999 63.7773 79.7554 61.914 79.2663C60.0506 78.7772 58.5261 78.0435 57.1709 76.9023C55.9005 75.8426 54.8841 74.3754 54.1218 72.582C53.4442 70.7887 53.1054 68.6693 53.1054 66.1424V40.3022H58.4414V66.9575C58.4414 68.9139 58.6955 70.5442 59.119 71.8484C59.5424 73.1526 60.22 74.1308 61.067 74.9459C61.914 75.6796 62.9304 76.1687 64.2008 76.4947C65.4713 76.8208 66.9112 76.9838 68.5204 76.9838C70.5532 76.9838 72.3318 76.8208 73.8564 76.4132C75.3809 76.0057 76.6514 75.3535 77.4137 74.5384C78.0913 73.8047 78.6841 72.7451 79.0229 71.4408C79.3617 70.1366 79.5311 68.5878 79.5311 66.876V40.3837H84.8671V65.6533H84.9517ZM135.347 79.4293L132.044 49.5949L117.73 79.4293H115.189L99.6892 49.5949L96.9788 79.4293H93.3368L97.487 40.0576H100.79L117.306 72.1745L132.806 40.0576H136.194L140.683 79.4293H135.347ZM149.237 79.4293V40.3022H154.743V79.4293H149.237Z" fill="#19BBBB"/>
<path d="M177.105 79.429V40.3019H182.611V79.429H177.105ZM200.651 79.429V43.3179L188.116 43.1549L188.54 40.3019H218.692L218.269 42.9919L206.157 43.3179V79.429H200.651V79.429ZM251.555 79.9181C248.59 79.9181 246.134 79.429 244.101 78.4508C242.069 77.4727 240.375 76.0869 239.104 74.3751C237.834 72.5818 236.902 70.4623 236.309 68.0169C235.716 65.4899 235.462 62.7185 235.462 59.7024C235.462 55.9528 236.055 52.8552 237.156 50.3282C238.257 47.8013 239.697 45.7634 241.476 44.2146C243.254 42.6658 245.287 41.5246 247.489 40.8725C249.691 40.2204 251.978 39.8128 254.18 39.8128C255.027 39.8128 255.874 39.8128 256.891 39.8943C257.907 39.9758 258.839 39.9758 259.855 40.0573C260.787 40.1389 261.718 40.2204 262.481 40.3019C263.328 40.3834 264.005 40.4649 264.429 40.5465L262.989 45.1928C262.481 45.0297 261.718 44.8667 260.787 44.6222C259.855 44.3776 258.839 44.2146 257.653 44.0516C256.552 43.8886 255.536 43.7255 254.434 43.644C253.333 43.481 252.486 43.481 251.809 43.481C250.2 43.481 248.844 43.644 247.743 43.8885C246.642 44.1331 245.541 44.6222 244.525 45.3558C243.339 46.2525 242.492 47.9643 241.984 50.4097C241.476 52.8552 241.306 55.9527 241.306 59.6209C241.306 65.2454 242.153 69.5657 243.847 72.5002C245.541 75.4348 248.336 76.8205 252.148 76.8205C253.249 76.8205 254.265 76.8205 255.451 76.739C256.552 76.6575 257.738 76.576 258.839 76.413C259.94 76.2499 261.126 76.0869 262.142 75.8424C263.243 75.5978 264.259 75.3533 265.191 75.0272V77.0651C264.175 77.5542 263.158 77.9617 261.973 78.2878C260.871 78.6139 259.686 78.9399 258.5 79.1844C257.314 79.429 256.128 79.592 254.943 79.7551C253.757 79.9181 252.656 79.9181 251.555 79.9181ZM310.081 59.7024C310.081 62.8 309.657 65.653 308.81 68.0984C307.963 70.6254 306.778 72.7448 305.084 74.4566C303.474 76.2499 301.357 77.5542 298.901 78.5323C296.445 79.5105 293.565 79.9181 290.262 79.9181C286.958 79.9181 284.079 79.429 281.622 78.4508C279.166 77.4727 277.218 76.0869 275.694 74.3751C274.169 72.5818 272.983 70.4623 272.306 68.0169C271.628 65.4899 271.205 62.7185 271.205 59.7024C271.205 56.6864 271.543 53.9149 272.306 51.4694C273.068 49.024 274.169 46.9861 275.778 45.2743C277.303 43.5625 279.336 42.1767 281.707 41.2801C284.079 40.3834 286.958 39.8943 290.262 39.8943C293.565 39.8943 296.445 40.3834 298.901 41.2801C301.357 42.1767 303.39 43.5625 305.084 45.2743C306.693 46.9861 307.963 49.024 308.81 51.4694C309.657 53.9149 310.081 56.6049 310.081 59.7024ZM304.152 59.7024C304.152 57.1755 303.898 54.893 303.39 52.8552C302.882 50.8173 302.035 49.024 300.849 47.5567C299.748 46.0894 298.308 44.9482 296.529 44.1331C294.835 43.3179 292.718 42.9104 290.346 42.9104C288.229 42.9104 286.281 43.1549 284.502 43.5625C282.724 43.97 281.284 44.6222 280.183 45.5188C279.59 46.0079 279.081 46.7415 278.743 47.6382C278.319 48.6164 278.065 49.6761 277.811 50.9803C277.557 52.2031 277.388 53.5888 277.303 55.1376C277.218 56.6048 277.133 58.1536 277.133 59.7839C277.133 62.2294 277.388 64.5118 277.811 66.6312C278.235 68.7506 278.997 70.5439 280.013 72.0926C281.03 73.6414 282.385 74.7827 283.994 75.6793C285.688 76.576 287.805 76.9835 290.346 76.9835C292.718 76.9835 294.835 76.739 296.445 76.3314C298.138 75.9238 299.663 75.1087 300.933 74.049C301.526 73.5599 302.035 72.9078 302.373 71.9297C302.797 70.9515 303.136 69.8103 303.39 68.506C303.644 67.2018 303.813 65.816 303.983 64.2672C304.152 62.7185 304.152 61.2512 304.152 59.7024ZM359.29 79.429L355.987 49.5946L341.673 79.429H339.132L323.632 49.5946L320.922 79.429H317.28L321.43 40.0573H324.734L341.25 72.1742L356.749 40.0573H360.137L364.626 79.429H359.29ZM380.888 61.7403L382.074 61.5773C383.514 61.3327 384.869 61.0881 386.139 60.6806C387.41 60.273 388.596 59.7024 389.527 58.9688C390.459 58.2351 391.221 57.257 391.814 56.0343C392.407 54.8115 392.661 53.1812 392.661 51.1434C392.661 49.6761 392.407 48.3719 391.983 47.3122C391.475 46.2525 390.882 45.3558 390.035 44.7037C389.188 44.0516 388.172 43.4809 386.902 43.1549C385.716 42.8288 384.361 42.6658 382.921 42.6658C382.159 42.6658 381.481 42.6658 380.973 42.7473C380.38 42.7473 379.702 42.8288 378.94 42.9104V79.3475H373.435V40.3834C375.129 40.2204 376.907 40.1389 378.94 40.0573C380.973 39.9758 382.921 39.9758 384.869 39.9758C387.24 39.9758 389.273 40.2204 391.052 40.7094C392.83 41.1985 394.27 41.9322 395.371 42.9104C396.472 43.807 397.319 44.9482 397.912 46.334C398.505 47.6382 398.759 49.187 398.759 50.8173C398.759 52.6106 398.42 54.2409 397.743 55.7082C397.065 57.1755 396.049 58.5612 394.609 59.7024C393.254 60.8436 391.475 61.7403 389.358 62.3924C387.24 63.0445 384.699 63.3706 381.735 63.3706H381.396L380.888 61.7403ZM428.742 79.429L423.66 65.0824L407.991 65.2454L402.486 79.3475H398.421L414.513 40.5465L419.256 39.2422L434.332 79.3475H428.742V79.429ZM422.813 62.5555L416.038 44.2961L409.008 62.5555H422.813ZM471.938 79.592L443.226 49.1055H443.141C443.226 51.9585 443.226 54.6485 443.31 57.0124C443.31 58.0721 443.31 59.0503 443.31 60.11C443.31 61.0882 443.31 61.9848 443.31 62.8815C443.31 63.6966 443.31 64.4303 443.31 65.0824C443.31 65.7345 443.31 66.1421 443.31 66.3051V79.5105H439.668V40.1389H442.125L470.837 70.5439C470.752 67.8539 470.752 65.4084 470.752 63.126C470.752 62.1478 470.752 61.1697 470.752 60.1915C470.752 59.2133 470.752 58.2351 470.752 57.42C470.752 56.5233 470.752 55.7082 470.752 55.0561C470.752 54.404 470.752 53.8334 470.752 53.4258V40.4649H474.394V79.7551H471.938V79.592ZM499.211 79.429H493.875V64.4303L479.9 40.3019H486.083L497.517 61.0881L508.189 40.3019H512L499.211 64.4303V79.429Z" fill="#333333"/>
<path d="M318.8 22.4501C319.986 21.2274 322.696 19.5971 323.797 19.7601C324.898 19.9232 327.355 19.8416 332.521 27.0149C336.671 32.721 340.483 40.954 341.923 42.9103C343.024 38.264 342.092 27.7486 335.994 18.945C331.928 13.4835 329.811 12.1792 329.218 12.2608C329.387 11.9347 329.472 10.9565 329.98 9.24471C330.488 7.5329 331.589 7.12533 331.589 6.9623C330.997 6.71776 329.133 6.14713 328.286 6.22865C327.439 6.39168 325.322 7.28836 324.306 7.77745C323.628 6.63624 320.833 4.27232 315.666 2.64203C304.063 -1.10766 296.101 -0.211022 292.205 1.33776C295.169 2.47897 299.828 3.94626 303.809 5.49504C309.483 7.61443 312.702 9.16317 313.888 10.1413C315.158 11.201 316.852 12.9944 316.852 15.0322C316.852 16.9886 315.666 18.5374 315.158 19.1895C314.65 19.7601 307.705 26.4443 307.705 26.4443L313.972 23.8359L312.024 30.7646C313.888 28.4007 317.699 23.7544 318.8 22.4501Z" fill="#19BBBB"/>
</svg>
