<svg width="24" height="24" viewBox="0 0 24 24" fill="none" xmlns="http://www.w3.org/2000/svg">
<path fill-rule="evenodd" clip-rule="evenodd" d="M12 22.7789C17.953 22.7789 22.7789 17.953 22.7789 12C22.7789 6.04695 17.953 1.22105 12 1.22105C6.04695 1.22105 1.22105 6.04695 1.22105 12C1.22105 17.953 6.04695 22.7789 12 22.7789ZM12 24C18.6274 24 24 18.6274 24 12C24 5.37258 18.6274 0 12 0C5.37258 0 0 5.37258 0 12C0 18.6274 5.37258 24 12 24Z" fill="#eeeeee"/>
<path fill-rule="evenodd" clip-rule="evenodd" d="M13.0745 5.83862L18.1657 11.0238C18.4781 11.342 18.4781 11.8579 18.1657 12.1761L13.0745 17.3613C12.7621 17.6795 12.2555 17.6795 11.9431 17.3613C11.6307 17.0431 11.6307 16.5273 11.9431 16.2091L15.6686 12.4148H5.59998V10.7852H15.6686L11.9431 6.99089C11.6307 6.6727 11.6307 6.15681 11.9431 5.83862C12.2555 5.52043 12.7621 5.52043 13.0745 5.83862Z" fill="#eeeeee"/>
</svg>
