<?xml version="1.0" encoding="utf-8"?>
<!-- Generator: Adobe Adobe Illustrator 24.2.0, SVG Export Plug-In . SVG Version: 6.00 Build 0)  -->
<svg version="1.1" id="Layer_2" xmlns="http://www.w3.org/2000/svg" xmlns:xlink="http://www.w3.org/1999/xlink" x="0px" y="0px"
	 viewBox="0 0 152 50" width="152" height="50" style="enable-background:new 0 0 152 50;" xml:space="preserve">
<style type="text/css">
	.st0{fill:#FFFFFF;}
	.st1{fill:#1B75B2;}
</style>
<path d="M67.14,4.85c0.04,14.3,0.09,28.6,0.07,42.89c2.62,0,5.23,0,7.85-0.01c0,0,0.13-3.99,0.4-4.07c0.66,1.62,2.02,2.89,3.59,3.67
	c1.56,0.79,3.32,1.12,5.06,1.25c2.31,0.17,4.68-0.03,6.85-0.83c2.18-0.8,4.16-2.24,5.51-4.22c2.22-3.24,3.49-7.13,3.62-11.05
	c0.13-3.93-0.89-7.88-2.96-11.35c-1.04-1.91-2.77-3.4-4.73-4.36c-1.96-0.96-4.13-1.4-6.31-1.54c-2.47-0.15-5.09,0.13-7.13,1.52
	c-1.2,0.82-2.13,1.98-3.03,3.18c-0.04-5.1-0.07-10.2-0.06-15.26C72.96,4.71,70.05,4.73,67.14,4.85z"/>
<path class="st0" d="M79.49,23.6c-1.65,1-2.72,2.78-3.16,4.66S76.02,32.1,76.34,34c0.37,2.19,1.07,4.44,2.69,5.95
	c2.15,1.99,5.78,2.13,8.06,0.29c1.66-1.33,2.52-3.43,2.98-5.52c0.49-2.23,0.59-4.6-0.09-6.78s-2.2-4.17-4.3-5.07
	C83.59,21.98,81.13,22.61,79.49,23.6z"/>
<polygon points="122.03,16.51 122.03,22.95 138.02,23.04 120.58,40.75 120.56,47.45 151.35,47.48 151.41,41.07 132.67,41.22
	150.15,23.2 150.08,16.51 "/>
<polyline class="st1" points="107.55,14.37 103.6,42.4 109.55,48 115.38,42.63 111.38,14.43 "/>
<path class="st1" d="M107.31,4.6c-0.61,1.64-1.34,3.24-2.16,4.76c0.6,1.04,1.2,2.09,1.8,3.12c1.84,0,3.67,0.01,5.5,0.01
	c0.53-0.92,1.06-1.88,1.6-2.83c-0.86-1.62-1.58-3.33-2.13-5.08"/>
<polygon class="st1" points="3.9,4.89 3.79,27.7 0.74,28.48 1.36,33.44 14.14,29.89 14.21,25.32 8.71,26.53 8.71,18.25 14.21,18.21
	14.21,13.36 8.79,13.44 8.75,6.18 9.37,6.18 9.33,4.89 "/>
<path class="st1" d="M15.65,5.06h5.1l-0.05,0.9l-0.48,0.02v7.13l4.71-3.88l4.13,3.51l0.05,0.81l-0.99-0.02l-7.71,5.2
	c0,0-0.16,8.68-0.2,8.72c0.01,0.29,0.23,0.53,0.48,0.66c0.26,0.13,0.55,0.16,0.83,0.19c0.69,0.07,1.44,0.14,2.05-0.19
	c0.58-0.31,0.95-0.93,1.1-1.58s0.12-1.31,0.09-1.97l1.14-0.03c0,0,3.51,1.75,3.48,1.84c0.42,1.54,0.13,3.26-0.76,4.58
	c-0.43,0.63-1,1.18-1.72,1.44c-0.55,0.2-1.14,0.21-1.72,0.22c-1.65,0.03-3.3,0.07-4.95,0.1c-1.14,0.02-2.27-0.15-3.37-0.47
	c-1.05-0.31-1.45-1.3-1.45-2.79L15.65,5.06z"/>
<polygon class="st1" points="33.85,6.83 33.81,10.29 38.54,10.25 38.57,11.48 34.18,11.48 34.18,23.79 38.54,23.87 38.54,25
	33.66,25 33.63,28.92 38.59,28.92 38.57,33.5 42.51,33.53 42.54,28.94 46.91,28.89 46.95,25 42.49,25 42.53,23.95 46.52,23.97
	46.53,11.53 42.44,11.58 42.43,10.39 46.28,10.37 46.28,6.9 42.38,6.91 42.39,5.87 42.77,5.85 42.79,4.8 38.6,4.74 38.59,6.85 "/>
<polygon class="st0" points="37.8,14.23 37.8,16.23 38.72,16.23 38.71,14.22 "/>
<polygon class="st0" points="42.05,14.23 42.05,16.23 42.97,16.23 42.96,14.22 "/>
<polygon class="st0" points="42.05,18.58 42.05,20.58 42.97,20.58 42.96,18.57 "/>
<polygon class="st0" points="37.8,18.58 37.8,20.58 38.72,20.58 38.71,18.57 "/>
<polygon class="st1" points="46.95,7.68 46.95,11.55 49.16,11.55 45.94,17.16 50.93,25.06 45.38,29.4 43.71,29.56 46.77,33.4
	53.51,28.86 59.47,33.42 62.99,29.88 62.03,29.56 56.85,25.48 59.17,19.97 59.78,20.46 63.15,17.71 59.03,11.62 61.38,11.61
	61.4,7.66 56.01,7.68 56,5.97 56.78,5.98 56.76,5.13 51.92,5.1 51.89,7.65 "/>
<polygon class="st0" points="56.38,15.71 54.42,13.4 54.42,12.49 55.3,12.5 55.32,11.56 52.12,11.55 52.09,12.48 53.05,12.48
	53.03,13.43 51.37,15.68 52.33,16.13 53.93,20.71 55.25,16.24 "/>
<path class="st1" d="M2.74,35.78V47.8l2.45,0.03c0,0,0.05-6.05,0.04-6.1c0.42-0.61,1.15-0.99,1.9-0.99c0.74,0.01,1.47,0.4,1.88,1.01
	l0.01,6.01l2.59,0.04c0,0,0.07-6.05,0.07-6.09c-0.09-1.43-1.05-2.78-2.38-3.33s-3.05-0.28-4.13,0.67l0-3.29"/>
<polyline class="st1" points="13.72,39.23 13.74,47.83 16.25,47.87 16.31,39.26 "/>
<rect x="13.72" y="35.78" class="st1" width="2.59" height="2.17"/>
<path class="st1" d="M17.97,35.9l-0.05,11.93h2.8c0,0,0-2.75,0.05-2.74c0.07-0.49,0.69-0.91,1.18-0.97s1,0.24,1.18,0.7
	c0.4,1,0.8,2,1.19,3.01h3.34l-3.6-5.3l3.11-3.6l-2.99-0.07l-3.42,3.25l0.05-6.22L17.97,35.9z"/>
<path class="st1" d="M39.03,35.9l-0.05,11.93h2.8c0,0,0-2.75,0.05-2.74c0.07-0.49,0.69-0.91,1.18-0.97c0.49-0.06,1,0.24,1.18,0.7
	c0.4,1,0.8,2,1.19,3.01h3.34l-3.6-5.3l3.11-3.6l-2.99-0.07l-3.42,3.25l0.05-6.22L39.03,35.9z"/>
<path class="st1" d="M37.74,47.93c0,0-0.05-7.42-0.01-7.41c-0.38-0.93-1.27-1.61-2.24-1.86c-1.08-0.28-1.98-0.17-2.99-0.13
	c-0.96,0.04-1.79,0.28-2.56,0.74s-1.29,1.4-1.33,2.3c0,0,2.33,0,2.34,0.02c0.23-0.5,0.69-0.87,1.2-1.07
	c0.51-0.2,1.08-0.23,1.62-0.17c0.29,0.03,0.61,0.11,0.78,0.35c0.1,0.14,0.14,0.33,0.17,0.5c0.06,0.33,0.1,0.72-0.15,0.94
	c-0.15,0.13-0.36,0.15-0.56,0.17c-0.86,0.06-1.72,0.05-2.58,0.17c-0.85,0.12-1.71,0.39-2.37,0.94c-0.19,0.16-0.36,0.34-0.48,0.56
	c-0.15,0.27-0.2,0.58-0.25,0.88c-0.08,0.5-0.13,1.03,0.02,1.51c0.17,0.54,0.6,0.98,1.09,1.26c0.5,0.28,1.06,0.42,1.62,0.51
	c1.13,0.19,2.4,0.16,3.3-0.56c0.37-0.29,0.7-0.71,1.17-0.71l0,1.07L37.74,47.93z"/>
<path class="st0" d="M34.77,44.03c-0.58-0.03-1.16-0.03-1.74,0c-0.34,0.01-0.69,0.04-1.02,0.15s-0.63,0.33-0.78,0.64
	s-0.12,0.72,0.13,0.96c0.17,0.16,0.41,0.23,0.64,0.26c0.89,0.12,1.83-0.23,2.44-0.89C34.75,44.82,34.97,44.33,34.77,44.03z"/>
<path class="st1" d="M52.37,39.08c0,1.32-0.04,2.75-0.04,4.07c0,0.51,0,1.02,0.13,1.52c0.12,0.49,0.38,0.97,0.79,1.27
	c0.74,0.52,1.89,0.26,2.38-0.5c0.36-0.56,0.39-1.26,0.4-1.92c0.03-1.48,0.01-2.91,0.04-4.4l2.69,0l0.04,8.82l-2.37,0.02
	c0,0-0.01-0.6,0-0.6c-0.63,0.56-1.4,0.93-2.23,1.04c-0.91,0.12-1.67-0.03-2.42-0.42c-0.92-0.48-1.31-1.09-1.74-2.23
	c-0.36-0.97-0.33-1.93-0.33-3.04c0-0.2,0-2,0-3.65L52.37,39.08z"/>
</svg>
