<svg width="300" height="76" viewBox="0 0 300 76" fill="none" xmlns="http://www.w3.org/2000/svg">
<path d="M261.47 52.66C266.72 51.43 272.1 50.15 276.58 47.13C281.45 43.85 284.86 38.7 286.82 33.17C288.78 27.64 289.39 21.71 289.49 15.84C289.49 15.84 295.6 15.59 295.78 15.86C295.75 21.32 295.53 26.83 294.1 32.09C292.14 39.34 287.88 45.94 282.09 50.72C276.3 55.5 269 58.42 261.47 58.91C261.48 56.8 261.48 54.7 261.47 52.66Z" fill="#2A364D"/>
<path d="M273.84 15.87C276.12 22.49 277.69 29.35 278.43 36.32C276.57 36.15 274.69 36.14 272.78 36.27C271.68 29.45 270.06 22.72 267.94 16.14C269.98 16.16 272.03 16.07 273.84 15.87Z" fill="#2A364D"/>
<path d="M240.31 17.24C228.19 15.74 215.94 15.29 203.75 16.12C203.62 17.87 203.5 19.62 203.83 21.52C216.05 21.18 228.29 21.71 240.43 23.11C240.48 21.05 240.53 18.99 240.31 17.24Z" fill="#2A364D"/>
<path d="M238.3 33.58C227.25 32.24 216.11 31.68 204.98 31.89C204.9 33.98 204.83 36.07 204.75 38.16C216.02 37.59 227.34 38.04 238.54 39.51C239.05 37.6 239.14 35.57 238.3 33.58Z" fill="#2A364D"/>
<path d="M243.81 51.83C229.79 49.92 215.63 49 201.47 49.09C201.44 51.25 201.4 53.4 201.37 55.56C215.46 54.61 229.58 56.49 243.58 58.37C243.58 55.97 243.44 54.6 243.81 51.83Z" fill="#2A364D"/>
<path d="M176.48 31.6599C176.69 41.1499 176.65 50.6399 176.37 60.1199C174.18 59.9799 171.97 60.0499 169.79 60.3199C170.21 52.2099 170.18 44.0699 169.33 36.0299C163.89 38.4299 158.07 39.8499 152.29 41.2499C150.65 41.6499 148.94 42.0499 147.28 41.7399C147.3 39.8799 147.33 38.0099 147.61 36.2599C154.56 34.5399 161.49 32.4899 167.8 29.0999C174.11 25.7099 179.8 20.8899 183.33 14.5899C185.69 14.3399 188.07 14.2199 190.37 14.0699C187.82 21.1999 182.03 26.5999 176.48 31.6599Z" fill="#2A364D"/>
<path d="M113.3 26.48C113.41 31.25 113.51 36.15 111.83 40.62C109.55 46.71 104.17 51.26 98.24 53.96C98.2 55.66 98.32 56.34 98.45 59.32C101.57 59.32 104.85 57.83 107.37 56.01C109.9 54.19 111.97 51.81 113.85 49.32C115.26 47.46 116.6 45.48 117.29 43.31C124.67 42.29 131.59 38.22 136.08 32.27C136.61 31.57 137.1 30.84 137.51 30.07C138.05 29.03 138.42 27.91 138.79 26.8C139.92 23.39 141.07 19.86 140.54 16.14C126.21 16.15 113.36 16.06 97.19 15.99C97.13 17.81 97.08 19.63 97 21.56C109.12 21.59 121.23 21.55 133.31 21.53C132.19 27.88 127.76 33.55 121.88 36.19C120.99 36.59 120.06 36.93 119.18 36.74C119.19 33.38 119.2 30.02 119.32 26.65C117.34 26.61 115.36 26.57 113.3 26.48Z" fill="#2A364D"/>
<path d="M257.88 15.87C260.16 22.49 261.73 29.35 262.47 36.32C260.61 36.15 258.73 36.14 256.82 36.27C255.72 29.45 254.1 22.72 251.98 16.14C254.03 16.16 256.08 16.07 257.88 15.87Z" fill="#2A364D"/>
<circle cx="38" cy="38" r="38" fill="#185BA4"/>
<path d="M17.41 23.81C16.96 26.35 18.81 29.09 21.34 29.61C23.87 30.13 26.65 28.35 27.24 25.83C27.83 23.31 26.12 20.49 23.62 19.83C21.12 19.17 17.95 20.73 17.41 23.81Z" fill="white"/>
<path d="M49.23 23.61C48.68 26.19 50.45 29.05 53.01 29.71C55.57 30.37 58.5 28.72 59.27 26.2C60.04 23.68 58.52 20.67 56.03 19.8C53.54 18.93 49.96 20.16 49.23 23.61Z" fill="white"/>
<path d="M49.85 43.7101C49.74 47.0001 49.81 50.3001 50.06 53.5901C50.15 54.7601 50.31 56.0301 51.15 56.8401C51.65 57.3201 52.32 57.5801 52.99 57.7501C54.42 58.1301 56.07 58.1601 57.25 57.2701C58.82 56.0801 58.95 53.8201 58.95 51.8501C58.94 46.5201 58.92 41.1901 58.91 35.8601C58.91 35.1701 58.89 34.4401 58.49 33.8801C57.96 33.1501 56.95 32.9801 56.05 33.0301C54.04 33.1401 52.17 34.0101 50.35 34.8701C48.41 35.7901 46.46 36.7101 44.52 37.6301C42.56 38.5601 40.28 39.9901 40.4 42.1501C40.51 44.0201 42.56 45.2901 44.43 45.2501C46.29 45.2101 48 44.2201 49.85 43.7101Z" fill="white"/>
<path d="M26.52 43.7101C26.63 47.0001 26.56 50.3001 26.31 53.5901C26.22 54.7601 26.06 56.0301 25.21 56.8401C24.71 57.3201 24.03 57.5801 23.35 57.7501C21.9 58.1301 20.24 58.1601 19.05 57.2701C17.46 56.0801 17.33 53.8201 17.33 51.8501C17.34 46.5201 17.36 41.1901 17.37 35.8601C17.37 35.1701 17.39 34.4401 17.8 33.8801C18.33 33.1501 19.36 32.9801 20.27 33.0301C22.3 33.1401 24.19 34.0101 26.03 34.8701C27.99 35.7901 29.96 36.7101 31.92 37.6301C33.9 38.5601 36.21 39.9901 36.08 42.1501C35.97 44.0201 33.9 45.2901 32.01 45.2501C30.12 45.2101 28.4 44.2201 26.52 43.7101Z" fill="white"/>
</svg>
