<svg width="54" height="74" viewBox="0 0 54 74" fill="none" xmlns="http://www.w3.org/2000/svg">
<g clip-path="url(#clip0)">
<path d="M22.8633 40.1209C24.4778 39.6043 27.5935 39.4533 28.4518 40.1215C29.3102 40.7898 31.4448 41.8869 32.3098 50.6881C33.0323 57.7082 32.2188 66.801 32.481 69.216C35.7131 65.6325 40.1086 55.8927 39.2538 45.2068C38.4828 38.4432 37.321 36.2821 36.7753 36.072C37.0806 35.8644 37.6356 35.0399 38.9138 33.7685C40.192 32.497 41.332 32.6609 41.4125 32.5167C41.0277 32.0184 39.7204 30.6268 38.958 30.2957C38.1554 30.0366 35.9073 29.8214 34.7993 29.77C34.7848 28.4386 33.5683 25.0181 29.9675 21.1174C21.9241 12.2788 14.6929 9.28153 10.6064 8.79612C12.5708 11.2162 15.8187 14.7309 18.4486 17.995C22.2413 22.5701 24.2212 25.4714 24.7495 26.9007C25.3099 28.4422 25.8691 30.8341 24.8633 32.6356C23.8978 34.3652 22.1222 35.17 21.3671 35.5046C20.6521 35.7671 11.4311 38.3702 11.4311 38.3702L18.0628 39.0478L12.982 44.2459C15.7376 43.0431 21.2807 40.7498 22.8633 40.1209Z" fill="url(#paint0_radial)"/>
</g>
<defs>
<radialGradient id="paint0_radial" cx="0" cy="0" r="1" gradientUnits="userSpaceOnUse" gradientTransform="translate(22.0915 38.5229) rotate(-61.1992) scale(32.4966 36.149)">
<stop stop-color="#00CC99"/>
<stop offset="1" stop-color="#009B74"/>
</radialGradient>
<clipPath id="clip0">
<rect width="32" height="66" fill="white" transform="translate(0.678253 11.4624) rotate(-20)"/>
</clipPath>
</defs>
</svg>
