<svg width="32" height="66" viewBox="0 0 32 66" fill="none" xmlns="http://www.w3.org/2000/svg">
<path d="M11.0453 34.5179C12.7392 34.5847 15.7186 35.5084 16.2966 36.4299C16.8747 37.3515 18.5053 39.1125 16.308 47.6787C14.5859 54.5226 10.7115 62.7888 10.1319 65.1478C14.3947 62.8859 21.8563 55.2368 24.7079 44.903C26.2967 38.2836 25.9441 35.8555 25.5031 35.4714C25.8611 35.3807 26.6646 34.7958 28.3005 34.0382C29.9365 33.2806 30.9517 33.8245 31.0767 33.7165C30.8855 33.1166 30.133 31.3619 29.5298 30.79C28.8642 30.272 26.8253 29.3009 25.8017 28.8736C26.2435 27.6175 26.2702 23.9873 24.2207 19.0903C19.6853 8.03369 13.9154 2.74396 10.2413 0.890137C11.2596 3.83612 13.1095 8.24972 14.4644 12.2165C16.4636 17.8128 17.3318 21.2163 17.3394 22.7401C17.3387 24.3803 17.0462 26.8192 15.4848 28.1681C13.986 29.4631 12.0423 29.6121 11.2182 29.6683C10.4566 29.6704 0.901356 28.9628 0.901356 28.9628L6.90135 31.8677L0.349121 35.0146C3.3499 34.8268 9.34309 34.5676 11.0453 34.5179Z" fill="url(#paint0_radial)"/>
<defs>
<radialGradient id="paint0_radial" cx="0" cy="0" r="1" gradientUnits="userSpaceOnUse" gradientTransform="translate(10.8666 32.7523) rotate(-41.1992) scale(32.4966 36.149)">
<stop stop-color="#00CC99"/>
<stop offset="1" stop-color="#009B74"/>
</radialGradient>
</defs>
</svg>
