<svg width="32" height="32" viewBox="0 0 32 32" fill="none" xmlns="http://www.w3.org/2000/svg">
<path fill-rule="evenodd" clip-rule="evenodd" d="M32 16C32 24.8366 24.8366 32 16 32C7.16344 32 0 24.8366 0 16C0 7.16344 7.16344 0 16 0C24.8366 0 32 7.16344 32 16ZM14.6752 11.7131C14.1209 9.68769 12.2258 8.19163 9.97962 8.19163C7.30009 8.19163 5.12012 10.3206 5.12012 12.9375C5.12012 15.5544 7.30009 17.6833 9.97962 17.6833H10.6394C8.78845 18.3542 7.46584 20.096 7.46584 22.1343C7.46584 24.7512 9.64575 26.8801 12.3253 26.8801C15.0049 26.8801 17.1848 24.7512 17.1848 22.1343V21.3868C17.1848 21.2289 17.2094 21.0751 17.2538 20.9284C17.8086 22.953 19.7025 24.4486 21.9481 24.4486C24.6277 24.4486 26.8076 22.3196 26.8076 19.7027C26.8076 17.0858 24.6275 14.9569 21.9481 14.9569H21.2901C23.1405 14.2858 24.4624 12.5438 24.4624 10.506C24.4624 7.88918 22.2824 5.76025 19.6029 5.76025C16.9234 5.76025 14.7434 7.88918 14.7434 10.506V11.2535C14.7434 11.4117 14.7197 11.5662 14.6752 11.7131ZM14.8391 15.2519V17.3885H17.0886V15.2519H14.8391ZM16.5405 13.0482H19.6029C21.0382 13.0482 22.2059 11.9078 22.2059 10.5061C22.2059 9.10439 21.0382 7.96399 19.6029 7.96399C18.1676 7.96399 16.9999 9.10439 16.9999 10.5061V11.2536C16.9999 11.8928 16.8357 12.5064 16.5405 13.0482ZM9.97956 10.3954C8.54428 10.3954 7.37657 11.5358 7.37657 12.9375C7.37657 14.3392 8.54428 15.4796 9.9795 15.4796H10.7449C11.3995 15.4796 12.0278 15.64 12.5825 15.9282V12.9375C12.5825 11.5358 11.4148 10.3954 9.97956 10.3954ZM14.9283 22.1343V21.3868C14.9283 20.7476 15.0925 20.1339 15.3877 19.5922H12.3253C10.89 19.5922 9.7223 20.7326 9.7223 22.1343C9.7223 23.536 10.89 24.6764 12.3253 24.6764C13.7606 24.6764 14.9283 23.536 14.9283 22.1343ZM19.3451 19.7028C19.3451 21.1045 20.5128 22.2449 21.9481 22.2449C23.3834 22.2449 24.5511 21.1045 24.5511 19.7027C24.5511 18.301 23.3834 17.1606 21.9481 17.1606H21.1828C20.5282 17.1606 19.8998 17.0003 19.3451 16.712V19.7028Z" fill="white"/>
</svg>
