<svg width="60" height="30" fill="none" xmlns="http://www.w3.org/2000/svg"><path d="M0 0l2.224 26.505L12.203 30l10.043-3.495L24.47 0H0zm19.64 8.565H7.926l.261 3.308h11.19l-.866 9.937-6.239 1.808v.02h-.07l-6.29-1.828-.382-5.076h3.04l.223 2.552 3.409.97 3.422-.97.382-4.166H5.372l-.816-9.75H19.92l-.28 3.195zM34.525 0l2.315 26.505L47.262 30l10.423-3.495L60 0H34.525zm20.771 5.357l-.318 3.168-7.65 3.3-.02.008h7.398l-.85 9.817-6.514 1.921-6.554-1.955-.425-4.949h3.244l.212 2.565 3.49.89 3.629-1.03.245-4.125-11.032-.034v-.007l-.014.007-.238-3.1 7.436-3.128.432-.18h-8.154l-.385-3.168h16.068z" fill="#fff"/></svg>