<svg width="32" height="32" viewBox="0 0 32 32" fill="none" xmlns="http://www.w3.org/2000/svg">
<path fill-rule="evenodd" clip-rule="evenodd" d="M16 32C24.8366 32 32 24.8366 32 16C32 7.16344 24.8366 0 16 0C7.16344 0 0 7.16344 0 16C0 24.8366 7.16344 32 16 32ZM26.1125 9.01737C26.3751 9.69264 26.5584 10.4719 26.6084 11.6055C26.6584 12.7432 26.6626 13.1057 26.6626 16.0022C26.6626 18.8986 26.6501 19.2611 26.6001 20.3989C26.5501 21.5324 26.3666 22.3076 26.1042 22.9869C25.5499 24.4205 24.4164 25.554 22.9827 26.1083C22.3076 26.3709 21.5283 26.5542 20.3947 26.6042C19.257 26.6543 18.8945 26.6667 15.998 26.6667C13.1016 26.6667 12.7389 26.6543 11.6013 26.6042C10.4677 26.5542 9.6926 26.3709 9.01326 26.1083C8.30479 25.8417 7.65883 25.4207 7.12536 24.8789C6.58358 24.3454 6.16276 23.7037 5.89188 22.9869C5.62929 22.3117 5.44582 21.5324 5.39585 20.3989C5.34587 19.2611 5.33333 18.8986 5.33333 16.0022C5.33333 13.1057 5.34587 12.7432 5.40008 11.6012C5.45006 10.4677 5.63336 9.69264 5.89595 9.0133C6.16276 8.30483 6.58358 7.65887 7.12536 7.1254C7.65883 6.57939 8.30056 6.16264 9.01749 5.89175C9.6926 5.62933 10.4719 5.44586 11.6054 5.39589C12.7432 5.34591 13.1057 5.33337 16.0021 5.33337C18.8985 5.33337 19.2611 5.34591 20.4031 5.40012C21.5366 5.4501 22.3118 5.6334 22.991 5.89599C23.6994 6.16264 24.3454 6.58362 24.8789 7.1254C25.4249 7.65887 25.8416 8.3006 26.1125 9.01737ZM24.3205 22.2951C24.4664 21.92 24.6414 21.3574 24.6873 20.3155C24.7372 19.1903 24.7498 18.8569 24.7498 16.0105C24.7498 13.164 24.7372 12.8266 24.6873 11.7013C24.6414 10.6635 24.4664 10.0969 24.3205 9.72178C24.1496 9.25912 23.8787 8.84237 23.5244 8.49644C23.1827 8.1422 22.7618 7.87131 22.2993 7.70054C21.9242 7.55468 21.3616 7.37968 20.3197 7.33377C19.1985 7.28379 18.8611 7.27126 16.0104 7.27126C13.1641 7.27126 12.8265 7.28379 11.7013 7.33377C10.6637 7.37968 10.0968 7.55468 9.72174 7.70054C9.25908 7.87131 8.84233 8.1422 8.49656 8.49644C8.13809 8.8383 7.8672 9.25912 7.69627 9.72178C7.55041 10.0969 7.3754 10.6595 7.32966 11.7013C7.27952 12.8223 7.26715 13.164 7.26715 16.0105C7.26715 18.8569 7.27952 19.1945 7.32966 20.3197C7.3754 21.3574 7.55041 21.9242 7.69627 22.2993C7.8672 22.7618 8.13809 23.1785 8.49232 23.5245C8.83403 23.8787 9.25501 24.1496 9.7175 24.3205C10.0926 24.4664 10.6552 24.6414 11.6971 24.6871C12.8182 24.7373 13.1599 24.7497 16.0063 24.7497C18.8528 24.7497 19.1902 24.7373 20.3155 24.6871C21.3533 24.6414 21.92 24.4664 22.295 24.3205C23.2244 23.9621 23.962 23.2245 24.3205 22.2951ZM16.0051 10.5229C12.9796 10.5229 10.5248 12.9775 10.5248 16.0032C10.5248 19.0289 12.9796 21.4835 16.0051 21.4835C19.0308 21.4835 21.4853 19.0289 21.4853 16.0032C21.4853 12.9775 19.0308 10.5229 16.0051 10.5229ZM16.0051 19.5581C14.0423 19.5581 12.4502 17.9662 12.4502 16.0032C12.4502 14.0402 14.0423 12.4483 16.0051 12.4483C17.9681 12.4483 19.56 14.0402 19.56 16.0032C19.56 17.9662 17.9681 19.5581 16.0051 19.5581ZM21.7003 11.5848C22.4071 11.5848 22.9801 11.0118 22.9801 10.3051C22.9801 9.59833 22.4071 9.02551 21.7003 9.02551C20.9936 9.02551 20.4207 9.59833 20.4207 10.3051C20.4207 11.0118 20.9936 11.5848 21.7003 11.5848Z" fill="white"/>
</svg>
