<svg width="32" height="32" viewBox="0 0 32 32" fill="none" xmlns="http://www.w3.org/2000/svg">
<path fill-rule="evenodd" clip-rule="evenodd" d="M16 32C24.8366 32 32 24.8366 32 16C32 7.16344 24.8366 0 16 0C7.16344 0 0 7.16344 0 16C0 24.8366 7.16344 32 16 32ZM25.4053 13.9812C25.4053 13.8178 25.1955 13.7203 25.0566 13.8235C24.2545 14.4056 23.1902 15.1454 19.5344 17.6142C19.4239 17.689 19.3002 17.7779 19.1654 17.8747C18.4117 18.416 17.3102 19.2072 16.2242 19.1999C15.1426 19.2072 14.0587 18.4292 13.2935 17.88C13.1573 17.7822 13.0312 17.6917 12.917 17.6142C9.25818 15.1425 8.19076 14.4056 7.38865 13.8264C7.24365 13.7232 7.04004 13.8178 7.04004 13.9841V20.7999C7.04004 21.683 7.8113 22.3999 8.76149 22.3999H23.6838C24.634 22.3999 25.4053 21.683 25.4053 20.7999V13.9812ZM18.4999 17.0034C17.8555 17.4669 16.9128 18.1451 16.2211 18.1332C15.5317 18.1427 14.5867 17.4635 13.9417 16.9999C13.8103 16.9055 13.6914 16.82 13.5896 16.7511C9.19756 13.7907 8.55057 13.3201 7.61413 12.6389C7.53563 12.5818 7.45509 12.5232 7.37014 12.4615C7.16344 12.3067 7.04004 12.0773 7.04004 11.8307V11.197C7.04004 10.3138 7.8113 9.59699 8.76149 9.59986H23.6807C24.6309 9.59986 25.4022 10.3167 25.4022 11.1999V11.8336C25.4022 12.0801 25.2788 12.3153 25.0721 12.4644C25.0124 12.5079 24.9548 12.5498 24.8986 12.5908C23.9215 13.3033 23.354 13.7171 18.8526 16.754C18.7506 16.823 18.6315 16.9087 18.4999 17.0034Z" fill="white"/>
</svg>
