<svg width="32" height="32" viewBox="0 0 32 32" fill="none" xmlns="http://www.w3.org/2000/svg">
<path fill-rule="evenodd" clip-rule="evenodd" d="M16 32C24.8366 32 32 24.8366 32 16C32 7.16344 24.8366 0 16 0C7.16344 0 0 7.16344 0 16C0 24.8366 7.16344 32 16 32ZM8 13.0076C8 8.49326 11.7347 4.85137 16.2825 5.00467C21.1442 5.16861 24.7002 9.72719 23.8828 14.5237C23.4058 17.3246 21.6616 19.6111 19.8059 22.0437C18.5907 23.6368 17.3276 25.2926 16.3413 27.1966C16.201 27.468 15.8102 27.4677 15.6704 27.1962C14.6751 25.2644 13.3978 23.5453 12.1722 21.8957C10.0053 18.9792 8 16.28 8 13.0076ZM11.8121 13.0076C11.8121 15.324 13.6896 17.202 16.0054 17.202C18.3213 17.202 20.1988 15.324 20.1988 13.0076C20.1988 10.6912 18.3213 8.81321 16.0054 8.81321C13.6896 8.81321 11.8121 10.6912 11.8121 13.0076Z" fill="#EEEEEE"/>
</svg>
