<svg width="60" height="30" fill="none" xmlns="http://www.w3.org/2000/svg"><path d="M46.452 15.003c0-2.231-2.73-4.346-6.915-5.658.966-4.367.537-7.841-1.355-8.954-.436-.26-.946-.384-1.502-.384v1.531c.308 0 .556.062.764.179.912.535 1.308 2.575 1 5.198a21.59 21.59 0 01-.342 2.018 31.815 31.815 0 00-4.26-.748 33.32 33.32 0 00-2.79-3.433c2.187-2.08 4.24-3.22 5.635-3.22V0c-1.845 0-4.26 1.346-6.7 3.68-2.442-2.32-4.856-3.653-6.7-3.653V1.56c1.388 0 3.447 1.133 5.633 3.2a32.269 32.269 0 00-2.77 3.426 30.657 30.657 0 00-4.265.755 21.154 21.154 0 01-.349-1.991c-.315-2.623.074-4.662.98-5.205.2-.123.462-.178.77-.178V.034c-.563 0-1.073.124-1.515.385-1.885 1.112-2.307 4.58-1.335 8.933-4.171 1.319-6.888 3.427-6.888 5.651 0 2.232 2.73 4.347 6.915 5.659-.966 4.367-.537 7.841 1.355 8.954.436.26.945.384 1.509.384 1.844 0 4.258-1.346 6.7-3.68 2.441 2.32 4.855 3.652 6.7 3.652.563 0 1.073-.123 1.516-.384 1.884-1.112 2.307-4.58 1.334-8.933 4.158-1.312 6.875-3.427 6.875-5.652zm-8.733-4.58c-.248.886-.556 1.8-.905 2.713A37.171 37.171 0 0034.97 9.88c.952.144 1.87.323 2.75.542zm-3.071 7.313a36.686 36.686 0 01-1.617 2.623 34.076 34.076 0 01-6.05.007c-.556-.817-1.099-1.689-1.622-2.61-.51-.899-.973-1.812-1.395-2.732a36.735 36.735 0 013.005-5.363 34.088 34.088 0 016.049-.007c.557.818 1.1 1.69 1.623 2.61.51.9.973 1.812 1.395 2.733-.422.92-.885 1.84-1.388 2.74zm2.166-.892c.362.92.67 1.84.925 2.733-.878.22-1.804.405-2.763.549.329-.529.658-1.071.966-1.628.309-.549.597-1.105.872-1.654zm-6.8 7.326a28.105 28.105 0 01-1.865-2.197c.604.027 1.22.048 1.844.048.63 0 1.254-.014 1.865-.048a26.641 26.641 0 01-1.845 2.197zm-4.99-4.044a29.613 29.613 0 01-2.75-.543c.248-.885.556-1.799.905-2.712.275.55.564 1.099.879 1.648.315.55.637 1.085.966 1.607zm4.956-14.29c.624.66 1.247 1.394 1.864 2.198A40.56 40.56 0 0030 7.986c-.63 0-1.254.014-1.864.048a26.643 26.643 0 011.844-2.197zm-4.963 4.045a38.028 38.028 0 00-1.838 3.275 29.87 29.87 0 01-.925-2.733 31.927 31.927 0 012.763-.542zm-6.07 8.597c-2.374-1.037-3.91-2.397-3.91-3.475 0-1.078 1.536-2.444 3.91-3.474.577-.254 1.207-.48 1.858-.694a33.489 33.489 0 001.509 4.182 33.02 33.02 0 00-1.489 4.161 20.065 20.065 0 01-1.878-.7zm3.608 9.812c-.912-.535-1.307-2.575-.999-5.198.074-.645.195-1.325.342-2.018 1.315.33 2.75.583 4.259.748a33.324 33.324 0 002.79 3.433c-2.186 2.08-4.239 3.22-5.634 3.22-.301-.006-.556-.068-.758-.185zm15.909-5.232c.315 2.623-.074 4.662-.98 5.205-.2.123-.462.178-.77.178-1.389 0-3.448-1.133-5.634-3.2a32.272 32.272 0 002.77-3.426 30.651 30.651 0 004.265-.755c.154.693.275 1.36.349 1.998zm2.582-4.58c-.577.254-1.207.48-1.858.693a33.493 33.493 0 00-1.509-4.181 33.025 33.025 0 001.49-4.161c.663.212 1.294.446 1.884.7 2.374 1.037 3.91 2.396 3.91 3.474-.007 1.078-1.543 2.445-3.917 3.475z" fill="#fff"/><path d="M29.991 18.141c1.693 0 3.065-1.405 3.065-3.138 0-1.733-1.372-3.138-3.065-3.138-1.692 0-3.065 1.405-3.065 3.138 0 1.733 1.373 3.138 3.065 3.138z" fill="#fff"/></svg>