<svg width="32" height="32" viewBox="0 0 32 32" fill="none" xmlns="http://www.w3.org/2000/svg">
<path fill-rule="evenodd" clip-rule="evenodd" d="M16 32C24.8366 32 32 24.8366 32 16C32 7.16344 24.8366 0 16 0C7.16344 0 0 7.16344 0 16C0 24.8366 7.16344 32 16 32ZM25.9766 16.3218C25.9766 17.0242 25.8925 17.7267 25.7499 18.3866C26.4592 19.2806 26.8833 20.3911 26.8796 21.6009C26.8796 24.5136 24.4411 26.88 21.4396 26.88C20.1966 26.88 19.0486 26.4685 18.1274 25.7802C17.4437 25.9186 16.7235 26.0002 15.9996 26.0002C10.4902 26.0002 6.02629 21.6719 6.02629 16.3218C6.02629 15.6193 6.11038 14.9169 6.25296 14.257C5.54371 13.3665 5.11963 12.2525 5.11963 11.0427C5.11963 8.12993 7.55812 5.76356 10.556 5.76001C11.8063 5.76001 12.9542 6.17155 13.8755 6.86337C14.5592 6.72501 15.2794 6.64341 16.0033 6.64341C21.5127 6.64341 25.9766 10.9717 25.9766 16.3218ZM10.4426 19.6354C10.4426 21.3242 13.1078 22.7007 16.2957 22.7007C18.9646 22.7007 21.7394 21.4093 21.7357 18.6208C21.7357 16.226 19.3411 15.4029 17.3304 14.963C17.0571 14.9018 16.8019 14.8465 16.5643 14.795C14.762 14.4042 13.9742 14.2335 13.9742 13.409C13.9742 12.6782 14.7676 12.3483 16.0142 12.3483C17.261 12.3483 17.8234 12.8433 18.3183 13.279C18.7071 13.6214 19.0543 13.927 19.6592 13.927C20.5805 13.927 21.1325 13.2246 21.1325 12.4263C21.1325 10.8475 18.4271 9.81514 15.751 9.81514C13.2979 9.81514 10.4499 10.8475 10.4499 13.6397C10.4499 16.4356 12.6701 16.9451 15.3531 17.5609C15.6218 17.6226 15.8952 17.6853 16.1714 17.7515C16.2345 17.7666 16.2964 17.7813 16.357 17.7957C17.5087 18.0688 18.2114 18.2355 18.2114 19.0713C18.2114 19.7738 17.4035 20.3095 16.1568 20.3095C14.6656 20.3095 13.9767 19.6259 13.3816 19.0355C12.9292 18.5866 12.531 18.1915 11.8758 18.1915C10.8813 18.1915 10.4426 18.8797 10.4426 19.6354Z" fill="white"/>
</svg>
