<svg width="32" height="32" viewBox="0 0 32 32" fill="none" xmlns="http://www.w3.org/2000/svg">
<path fill-rule="evenodd" clip-rule="evenodd" d="M16 32C24.8366 32 32 24.8366 32 16C32 7.16344 24.8366 0 16 0C7.16344 0 0 7.16344 0 16C0 24.8366 7.16344 32 16 32ZM24.2784 15.878C25.2936 15.5573 26.3835 16.0972 26.7129 17.0859C27.0422 18.0746 26.4865 19.1359 25.4726 19.4566C25.4726 19.4566 24.7094 19.6982 23.5261 20.0731C23.8221 20.9587 24.0402 21.6124 24.1318 21.8868C24.1623 21.9781 24.1787 22.0274 24.1794 22.0294C24.5075 23.0102 23.8812 24.0702 22.8565 24.3579C21.8724 24.6325 20.849 24.1137 20.506 23.191L19.8527 21.2347C19.6125 21.3108 19.3694 21.3878 19.1246 21.4653C18.0179 21.8157 16.8739 22.178 15.7862 22.5218C16.1793 23.7019 16.4354 24.4701 16.4382 24.478C16.7662 25.4588 16.1399 26.5188 15.1152 26.8066C14.1311 27.0811 13.1077 26.5624 12.7647 25.6397L12.1114 23.6834C11.1433 23.9903 10.4443 24.2112 10.1981 24.289C10.1361 24.3086 10.1028 24.3191 10.1012 24.3196C9.09405 24.6391 8.00559 24.0292 7.71009 23.0313C7.42814 22.073 7.96085 21.0763 8.90835 20.7424L10.9172 20.1061L9.59559 16.146C8.59907 16.4622 7.88735 16.6872 7.66235 16.7584C7.61404 16.7736 7.58817 16.7818 7.58674 16.7823C6.5796 17.1004 5.49113 16.4919 5.19563 15.4939C4.91233 14.5356 5.44504 13.539 6.3939 13.205L8.40275 12.5687L7.76973 10.6718C7.43899 9.68446 7.99474 8.62316 9.01001 8.30239C10.0239 7.9803 11.1137 8.52151 11.4445 9.51022C11.4445 9.51022 11.6925 10.2534 12.0762 11.4058L16.1427 10.1188L15.5096 8.22319C15.1803 7.23448 15.7347 6.17318 16.7499 5.85241C17.7652 5.53164 18.855 6.07286 19.183 7.06024C19.183 7.06024 19.4311 7.80342 19.8161 8.9558L21.7626 8.33935C22.7778 8.01858 23.8677 8.55847 24.197 9.54718C24.5264 10.5359 23.972 11.5972 22.9568 11.918C22.9568 11.918 22.1936 12.1595 21.0103 12.5344C21.0892 12.7708 21.1691 13.01 21.2495 13.251C21.6086 14.3263 21.9797 15.4377 22.3319 16.4945L24.2784 15.878ZM13.8093 16.5995C14.0719 17.3869 14.3364 18.18 14.592 18.9445L18.6585 17.6574L17.3369 13.6974C17.0938 13.7743 16.8478 13.8522 16.5999 13.9307C15.496 14.2803 14.3552 14.6416 13.2704 14.9844C13.4467 15.5124 13.6275 16.0546 13.8093 16.5995Z" fill="white"/>
</svg>
