<svg width="60" height="30" fill="none" xmlns="http://www.w3.org/2000/svg"><path d="M30 0c-8.535 0-15.484 6.726-15.484 15 0 8.268 6.95 15 15.484 15 8.535 0 15.484-6.732 15.484-15 0-8.274-6.95-15-15.484-15zM16.077 15c0-1.954.43-3.81 1.205-5.486l6.643 17.625C19.28 24.95 16.077 20.335 16.077 15zM30 28.488c-1.367 0-2.685-.194-3.933-.55l4.177-11.759 4.276 11.36c.031.066.063.126.1.187-1.442.49-2.997.762-4.62.762zm1.917-19.809a29.538 29.538 0 001.592-.127c.749-.084.662-1.155-.088-1.112 0 0-2.253.169-3.708.169-1.367 0-3.665-.17-3.665-.17-.75-.042-.837 1.071-.088 1.113 0 0 .712.085 1.461.127l2.167 5.758-3.047 8.85-5.07-14.608c.837-.042 1.593-.127 1.593-.127.749-.084.661-1.155-.088-1.112 0 0-2.254.169-3.709.169-.262 0-.568-.006-.899-.018C20.86 3.93 25.136 1.512 30 1.512c3.621 0 6.924 1.343 9.403 3.538-.063-.006-.119-.012-.181-.012-1.368 0-2.335 1.156-2.335 2.395 0 1.113.661 2.05 1.367 3.164.53.895 1.149 2.05 1.149 3.72 0 1.155-.456 2.491-1.062 4.36l-1.386 4.494L31.917 8.68zm5.082 17.976l4.252-11.909c.793-1.923 1.061-3.46 1.061-4.833 0-.496-.031-.955-.093-1.385A13.102 13.102 0 0143.922 15c0 4.978-2.785 9.32-6.924 11.655z" fill="#fff"/></svg>